<svg width="1368" height="730" viewBox="0 0 1368 730" fill="none" xmlns="http://www.w3.org/2000/svg">
<path d="M318.864 200.415C311.7 200.415 306.826 198.729 302.026 195.449C297.647 192.444 294 190.301 288.577 189.018C286.671 188.56 286.561 189.568 284.931 187.699C284.125 186.783 283.905 185.17 283.612 184.053C282.476 179.802 282.549 180.865 278.976 179.087C276.136 177.676 275.421 176.082 275.44 172.674C275.44 168.424 277.547 166.976 279.434 163.403C281.248 159.977 284.454 158.823 286.415 155.653C287.936 153.198 287.588 150.468 289.621 148.306C292.205 145.539 295.1 146.602 298.581 145.502C300.596 144.879 305.415 143.12 303.326 140.409C301.164 141.27 295.558 139.053 297.958 136.066C299.625 133.996 304.243 135.077 306.166 135.92C310.051 137.642 313.99 147.738 307.211 148.525C306.679 152.19 313.074 154.499 315.694 153.106C319.89 150.889 317.948 146.29 323.28 148.727C325.552 149.771 331.122 154.205 329.143 148.122C328.062 144.769 324.031 143.817 322.052 141.765C317.765 142.387 310.491 136.872 311.48 132.145C315.804 131.431 328.043 131.98 327.017 125.403C326.834 124.248 325.277 123.039 325.02 122.05C324.635 120.565 325.24 119.136 325.387 117.854C325.607 115.82 325.625 115.838 324.745 113.951C324.104 112.559 323.298 112.302 323.115 110.763C321.173 111.386 310.93 108.473 314.118 113.218C313.331 114.574 313.331 116.241 313.972 117.561C311.242 120.181 308.255 122.508 305.049 124.523C305.14 124.212 305.232 123.918 305.342 123.625C301.164 120.675 301.384 107.263 295.448 114.208C293.414 116.589 291.985 120.401 290.061 116.076C289.548 114.922 289.511 113.182 289.072 112.064C288.614 110.946 287.826 110.195 287.533 109.004C282.677 109.077 285.884 106.585 285.884 104.753C285.884 103.636 284.033 100.044 282.842 98.9816C279.269 95.7752 273.113 98.4869 272.6 103.251C271.739 111.184 279.764 104.533 281.798 109.022C282.695 111.001 276.228 118.293 274.689 119.924C271.849 120.071 268.715 120.272 267.561 117.176C263.622 117.835 260.672 120.419 256.879 121.078C254.112 121.555 245.483 122.343 244.053 120.034C241.195 120.364 238.96 118.825 236.908 117.231C235.13 115.838 231.722 115.179 230.898 113.291C229.487 113.291 222.268 114.922 222.195 116.351C222.14 117.597 226.739 119.778 227.692 119.942C227.911 118.44 226.702 117.414 226.006 116.498C227.49 116.425 229.047 116.425 230.531 116.498C230.66 116.571 231.338 117.029 231.613 117.194C231.814 120.474 228.809 119.686 226.959 120.785C223.624 122.746 225.841 123.295 225.603 126.758C225.42 129.452 224.045 131.174 221.224 129.342C219.611 128.298 219.318 125.787 218.768 123.955C215.709 123.955 213.235 122.673 210.267 122.489C207.244 122.306 203.762 121.921 200.593 121.39C198.65 121.06 197.13 121.537 196.745 119.246C196.47 117.579 198.174 117.322 198.431 116.315C199.841 111.056 195.297 114.317 193.484 111.111C191.285 111.111 190.204 112.888 188.152 113.2C186.1 113.53 183.186 112.265 181.171 111.752C177.396 110.8 174.172 108.528 170.141 108.179C165.23 107.74 160.613 109.719 156.124 107.868C154.878 107.355 155.428 106.366 153.651 106.054C152.221 105.816 151.928 106.512 150.811 106.86C149.326 107.337 146.486 108.693 145.973 109.315C142.877 110.653 140.239 113.072 137.362 114.684C135.768 115.582 132.47 117.542 130.198 117.011C127.34 111.459 141.1 111.093 139.414 107.08C138.131 104.039 129.007 112.577 127.028 112.394C125.764 112.265 124.628 109.242 123.272 110.561C122.447 111.349 123.693 112.888 124.005 113.585C124.939 115.71 126.625 117.066 127.01 119.851C127.303 121.94 127.871 126.649 123.987 124.633C121.934 123.57 121.513 119.631 121.238 117.78C121.037 116.443 121.238 115.179 121.238 114.574C116.126 114.849 109.732 110.763 104.143 109.938C100.68 109.444 97.4923 109.517 94.2492 108.07C93.1132 107.557 93.1865 106.787 91.6841 106.384C90.2549 105.999 88.1295 106.164 86.7004 106.036C83.5489 105.743 79.976 105.853 76.733 105.34C73.8564 104.881 71.0713 102.316 68.5612 102.115C65.6296 101.877 63.2843 105.541 60.2611 104.368C59.3083 104.002 59.0885 102.316 58.2273 101.785C56.9997 101.052 55.0575 100.905 53.5917 100.704C52.2359 100.521 50.935 100.832 49.6707 100.374C48.6997 100.026 47.6003 98.432 46.7392 98.3037C45.1268 98.0655 42.5983 99.1282 40.8577 99.2381C38.4208 99.3664 37.6879 99.9161 35.0494 101.107C33.9501 101.602 32.7591 101.913 31.7697 102.445C30.6887 103.031 30.1574 103.745 29.003 104.277C26.7677 105.303 24.3491 105.669 22.2604 106.805C20.3182 107.868 19.0356 109.041 17.24 110.268C15.4628 111.478 13.2274 112.247 11.2852 113.31C9.72784 114.153 8.28037 115.582 6.61303 116.48C5.49536 118.733 10.7722 122.581 12.5312 123.625C16.0857 125.732 19.1456 125.842 22.8833 127.162C23.4513 128.059 23.9827 129.067 24.6057 130.038C23.0666 131.174 20.4098 133.977 18.8524 134.344C16.2873 134.949 13.997 132.915 11.8899 132.09C8.50024 130.771 8.20708 131.559 5.49536 132.805C3.91963 133.538 -1.10071 133.794 0.218501 136.304C0.218501 136.341 2.87525 136.927 3.44325 137.349C4.3044 138.027 4.3044 139.181 5.05562 139.932C6.86954 141.746 8.70179 142.296 11.1936 143.047C14.1252 143.927 16.2873 144.806 18.9257 143.395C21.7474 141.893 21.839 139.877 25.3752 141.398C25.2469 145.704 26.0531 146.455 22.6818 149.607C20.7946 151.365 19.0356 152.941 16.5438 153.436C13.319 154.077 12.0548 153.802 9.48965 156.661C7.12606 159.299 7.63909 161.315 8.97662 164.503C9.89274 166.665 11.5601 169.834 14.1435 170.567C15.646 170.989 16.8919 169.78 18.3211 170.183C19.622 170.549 20.1533 171.63 21.1427 172.4C23.5979 174.342 25.8882 176.046 28.8931 176.669C31.5865 177.237 34.9578 175.35 37.1748 176.962C41.5722 180.15 33.7852 187.534 30.7803 190.136C26.5845 193.764 20.2999 194.167 16.8369 198.674C20.2816 202.412 40.0331 185.555 43.9541 183.503C46.391 182.239 49.176 181.286 51.0816 179.087C52.7856 177.108 53.0787 174.58 54.2147 172.601C54.801 171.575 56.3584 170.622 56.8898 169.578C57.4761 168.387 56.7982 166.903 57.2196 165.639C58.0258 163.202 60.426 161.919 62.8629 161.333C67.3885 164.997 63.1927 165.034 62.4964 169.12C61.8002 173.133 64.86 173.554 67.9016 171.978C72.4455 169.651 69.0192 167.691 71.053 164.136C73.1235 160.527 77.5025 162.689 80.599 162.396C81.4602 166.481 86.4622 166.042 89.2106 166.61C93.553 167.526 96.5395 169.047 100.662 170.164C102.861 170.769 103.759 171.905 105.664 172.583C107.863 173.352 110.116 172.894 112.205 173.81C114.972 175.02 118.948 179.82 122.411 176.65C125.416 177.255 125.691 182.807 127.303 184.437C127.853 184.987 128.952 186.123 129.795 187.277C132.726 191.363 138.919 191.125 141.283 195.816C142.62 198.472 141.283 201.019 141.613 203.383C142.089 206.681 144.434 206.314 145.534 208.916C146.56 211.335 143.28 213.515 145.076 215.164C147.439 217.308 150.371 212.947 151.507 217.931C152.386 221.742 149.986 222.511 155.061 223.904C158.03 224.71 160.1 225.809 162.482 227.532C166.568 230.5 169.811 233.688 171.094 239.295C171.368 240.522 171.295 242.63 170.361 243.307C168.528 244.645 168.437 242.226 167.081 242.575C164.058 243.326 164.296 246.569 164.039 249.629C163.526 255.565 165.157 261.099 164.039 266.723C162.922 272.33 163.856 277.369 165.67 282.829C166.293 284.734 166.476 286.988 167.172 288.802C168.235 291.55 169.573 291.569 171.533 293.712C174.556 297.029 174.062 301.261 177.396 304.907C180.218 307.986 182.362 309.891 185.422 312.585C186.246 313.317 185.88 314.38 187.016 315.205C187.712 315.699 189.453 315.461 190.405 316.157C191.999 317.275 193.209 319.51 193.868 321.251C194.18 322.057 193.868 325.887 194.583 326.601C196.067 328.085 196.433 330.046 197.35 331.658C198.266 333.271 199.457 334.718 200.299 336.202C201.362 338.034 200.922 339.812 201.71 341.919C202.516 344.062 203.304 344.411 204.898 346.188C207.72 349.321 207.427 353.15 209.9 356.174C211.678 358.317 215.709 362.403 218.75 362.183C219.336 358.885 213.143 352.766 211.238 349.852C208.526 345.73 206.584 341.351 204.202 337.301C202.938 335.158 196.873 324.934 202.058 323.835C206.657 322.863 209.516 333.252 211.128 336.239C216.093 345.473 223.807 351.923 229.047 360.534C231.979 365.353 233.353 369.439 234.929 374.698C236.633 380.396 241.653 383.621 246.93 386.003C252.262 388.403 256.916 391.261 262.193 393.661C264.703 394.816 266.187 396.923 269.467 396.446C272.49 396.025 274.743 393.826 278.206 395.457C280.57 396.556 281.468 399.268 284.326 400.092C286.488 400.697 288.705 399.928 290.757 401.064C292.003 401.76 293.213 403.097 294.239 403.885C297.005 406.029 299.992 406.963 302.594 408.887C304.408 410.225 306.789 413.01 308.475 415.044C309.941 416.803 311.682 426.935 314.98 424.883C317.233 426.88 319.908 428.584 322.18 429.866C325.368 428.62 327.988 431.882 330.407 431.351C333.907 430.563 333.155 427.1 337.516 428.767C341.895 430.453 344.204 437.085 344.204 441.666C344.204 443.077 343.489 445.202 343.489 446.65C343.489 452.788 338.194 459.072 335.262 464.038C335.446 464.074 335.537 464.184 335.519 464.349C332.679 467.995 330.92 471.037 330.315 475.489C329.692 480.052 333.155 481.609 333.485 485.823C332.716 486.758 331.763 487.545 330.737 488.022C327.53 492.639 333.027 498.319 334.878 502.57C337.406 508.396 339.697 514.443 341.987 520.379C343.837 525.216 344.222 533.516 348.4 536.833C352.522 540.112 358.019 542 362.05 545.719C366.337 549.677 369.507 553.451 369.507 559.553C369.507 565.489 368.444 570.986 368.444 577.014C368.444 583.042 368.353 588.594 366.942 594.09C365.201 600.815 366.246 607.374 365.146 614.135C364.084 620.695 363.699 626.613 361.409 632.952C359.173 639.164 357.304 643.414 357.396 650.029C357.433 653.235 356.407 655.525 355.967 658.567C355.527 661.554 356.443 664.375 356.956 667.124C358.092 673.115 357.213 679.858 356.315 685.922C355.692 690.228 353.035 691.602 351.643 686.765C349.206 686.271 348.675 688.982 348.803 690.906C348.052 691.126 347.685 691.767 347.172 691.987C349.829 694.589 360.364 695.23 358.019 701.222C357.726 701.955 356.04 702.394 355.6 703.439C355.124 704.593 355.692 706.81 355.6 708.074C355.454 710.218 355.527 716.539 353.53 717.4C352.541 720.827 357.891 720.332 359.796 721.688C362.105 723.337 363.406 726.818 363.497 729.383C367.803 730.391 367.968 723.025 369.507 720.955C371.01 718.921 372.384 719.562 373.062 716.613C373.501 714.744 372.677 712.343 374.491 711.482C375.315 710.09 377.001 708.899 377.697 707.708C378.448 706.425 378.613 704.795 379.456 703.439C380.83 701.203 385.649 698.821 385.466 695.688C385.319 693.288 381.82 692.134 380.537 690.247C378.888 687.828 378.265 683.449 380.244 681.049C385.319 680.756 383.854 679.106 384.385 675.534C384.861 672.309 389.515 671.851 390.083 669.157C390.651 666.464 386.327 665.621 386.95 662.122C387.243 660.491 387.866 659.666 389.552 658.988C391.347 658.274 391.641 659.355 393.455 659.19C397.211 658.824 397.504 656.661 398.695 653.931C400.197 650.523 402.652 649.479 406.17 648.233C408.937 647.244 412.052 646.969 414.727 645.393C417.787 643.598 418.043 639.732 420.407 638.266C419.253 635.041 411.026 627.401 416.504 626.521C420.517 625.88 420.755 630.167 423.632 630.735C426.307 631.267 428.872 627.51 430.686 626.063C432.555 624.561 434.094 623.461 435.468 621.611C437.3 619.174 438.07 616.206 440.378 614.044C444.336 610.361 448.349 604.772 449.191 599.001C449.54 596.637 449.924 594.329 449.191 592.038C448.165 588.74 446.754 588.997 449.723 586.34C453.002 583.408 458.902 578.26 463.098 577.637C465.828 572.36 474.586 574.229 478.562 570.858C481.054 568.732 482.117 565.416 483.106 562.393C484.022 559.589 486.294 556.621 486.679 553.873C487.119 550.703 487.1 546.947 487.467 543.594C487.76 540.882 487.742 537.804 487.742 534.891C487.742 528.533 490.453 523.915 494.081 518.932C496.72 515.304 499.505 511.584 501.63 507.554C503.169 504.64 505.166 497.311 503.004 494.087C502.161 492.822 498.552 491.778 497.269 490.569C495.749 489.121 495.217 487.142 493.55 485.75C489.134 482.012 484.627 483.698 479.918 483.698C479.203 483.698 475.667 485.145 474.934 484.412C473.23 482.708 471.673 482.324 470.024 480.748C468.668 479.447 467.99 477.578 466.818 476.131C462.897 471.33 459.489 471.953 454.908 475.324C453.057 476.68 451.28 479.41 448.917 480.052C447.781 480.345 443.127 480.271 442.229 479.062C439.206 474.903 452.233 475.618 449.228 469.498C444.611 468.71 439.004 477.047 434.662 478.219C435.193 476.204 435.523 473.492 436.476 471.861C437.831 469.553 441.148 468.398 443.145 466.859C446.168 464.496 445.71 463.671 444.299 460.538C443.108 457.863 442.925 455.17 442.174 452.348C440.433 445.697 435.743 444.268 429.33 443.48C423.357 442.747 418.3 441.043 414.397 436.682C410.952 432.835 405.492 430.16 402.359 425.927C400.289 423.142 399.794 420.339 395.855 420.302C392.795 420.284 389.698 422.391 386.602 422.079C383.872 421.805 380.922 420.009 378.045 419.239C376.69 418.873 375.334 418.598 374.198 417.719C373.428 417.132 372.787 415.007 371.633 414.915C370.093 414.805 367.547 418.708 367.363 420.027C367.034 422.263 369.47 427.045 364.468 425.286C357.909 422.977 364.377 416.491 364.468 412.882C362.16 412.79 360.034 414.805 358.55 416.454C357.799 417.297 357.066 418.58 356.315 419.239C355.545 419.917 354.519 420.156 353.457 420.925C351.13 422.647 350.965 423.362 349.829 425.927C349.023 427.741 347.96 430.636 345.34 429.5C341.474 421.914 333.43 425.707 327.549 427.375C326.688 426.77 325.845 426.44 325.02 425.945C324.635 423.582 321.85 421.548 320.714 419.588C318.956 416.564 318.589 414.018 319.34 410.316C320.696 403.592 321.392 398.224 312.854 398.224C311.645 398.224 309.721 398.224 308.585 398.224C306.221 398.224 302.96 397.417 301.366 395.127C299.387 392.269 300.468 390.418 301.568 387.56C303.473 382.668 306.734 375.54 304.627 370.154C301.476 369.567 297.353 369.274 294.788 372.297C292.571 374.917 293.231 379.022 290.446 381.495C287.752 383.877 280.075 385.251 276.191 384.354C272.325 383.474 267.506 376.621 266.205 372.591C265.234 369.604 265.106 367.02 263.805 363.961C262.504 360.864 263.054 359.985 263.805 356.998C264.391 354.653 265.234 352.271 265.784 350.072C266.48 347.342 265.784 344.246 266.627 341.662C266.828 341.626 267.03 341.589 267.213 341.534C267.634 337.723 277.07 332.831 280.442 333.051C282.97 333.216 285.682 334.7 288.284 335.194C290.849 335.671 295.869 337.723 297.94 335.909C297.61 334.81 297.207 333.545 296.895 332.428C298.581 331.109 299.186 329.185 301.201 328.763C303.381 328.324 306.185 329.496 308.585 329.478C313.66 329.478 318.259 330.064 321.337 334.132C325.313 339.39 324.947 352.527 332.368 354.378C334.145 352.289 332.642 347.049 331.855 344.704C329.912 339.005 328.007 332.794 327.109 326.986C326.23 321.159 333.21 315.919 336.838 312.456C340.741 308.755 344.955 303.826 346.622 299.173C347.813 295.82 347.777 294.958 347.429 291.349C347.227 289.15 346.732 284.899 348.473 283.47C351.075 285.119 351.405 287.446 351.826 290.231C354.538 290.396 353.841 287.538 353.823 285.651C353.805 279.549 356.425 275.72 362.032 273.173C363.791 272.367 368.261 272.532 369.434 270.626C370.845 268.336 367.931 265.441 368.811 262.857C370.533 257.727 378.65 256.591 383.066 254.759C385.338 253.806 395.049 247.448 395.47 253.531C395.14 253.806 394.664 254.392 394.389 254.612C392.648 254.851 390.12 255.528 389.753 257.471C389.552 257.507 389.35 257.544 389.167 257.581C388.636 259.046 386.254 263.829 390.12 261.74C390.156 257.819 396.917 255.547 399.794 254.319C401.736 253.476 403.385 253.385 405.236 251.937C406.976 250.581 407.27 249.207 409.707 248.932C409.926 248.163 409.926 246.624 409.725 245.836C405.639 244.865 402.652 251.736 398.786 251.772C397.376 250.362 397.339 248.621 396.899 246.55C394.444 246.496 392.923 247.705 390.248 247.137C388.929 245.231 386.089 243.399 386.272 240.779C386.584 236.272 393.4 239.276 393.4 235.429C393.4 234.586 391.054 234.329 388.764 234.366C386.474 234.384 382.791 234.952 381.233 237.866C377.697 238.269 374.692 244.535 371.028 242.501C370.918 238.708 377.276 234 380.152 231.801C382.608 229.914 383.414 228.448 386.272 227.513C389.698 226.396 392.374 226.304 395.91 226.432C399.519 226.561 402.671 225.04 406.317 224.747C408.149 224.6 409.56 225.132 411.227 224.692C412.711 224.289 414.012 222.841 415.496 222.328C420.535 220.588 426.856 219.818 424.474 212.636C423.357 209.301 422.331 209.283 419.051 210.125C415.423 211.06 411.979 211.371 408.076 211.152C407.673 205.6 414.177 205.472 417.933 204.372C418.831 201.221 412.601 200.085 410.403 198.839C406.757 196.787 403.623 197.117 401.663 192.316C400.142 188.597 398.163 185.958 396.331 182.33C394.536 178.757 394.059 174.507 389.918 173.481C388.892 175.166 384.568 178.904 382.809 179.582C381.472 180.095 380.024 179.325 378.503 179.545C377.862 179.637 376.231 180.993 375.59 180.92C373.337 180.681 370.9 176.815 370.515 174.91C369.965 172.235 372.475 169.871 372.017 166.994C371.486 163.623 367.858 163.202 365.788 161.938C363.039 160.27 360.987 158.676 358.129 157.742C355.967 157.027 352.357 155.305 349.939 155.598C346.164 156.056 338.212 163.019 340.374 167.306C342.5 168.515 342.335 171.41 341.327 173.352C340.045 173.774 338.945 174.58 338.579 175.844C341.584 176.925 338.615 178.189 338.524 179.545C338.396 181.378 338.909 182.275 340.045 184.016C342.372 187.607 343.343 189.366 343.526 193.709C343.709 198.051 341.346 198.857 339.513 202.613C338.249 205.197 336.692 211.866 339.935 213.369C338.67 217.528 338.634 222.273 333.192 222.915C329.289 223.373 324.819 219.836 323.518 216.209C318.754 214.303 321.429 206.791 321.429 202.98C321.429 201.661 320.073 200.47 318.937 200.47L318.864 200.415Z" fill="#8E8E8E" fill-opacity="0.15"/>
<path d="M308.53 91.7624C308.677 94.4375 310.142 101.29 312.396 101.785C313.276 102.646 314.686 102.499 316.244 102.389C317.252 99.183 314.412 96.6179 314.228 93.9062C314.045 91.1761 315.676 88.6293 316.775 86.1191C319.029 85.6611 322.254 83.2059 324.489 83.5357C328.062 84.0853 326.669 87.475 327.054 90.3333C327.695 95.0422 328.593 92.8251 332.038 93.5397C334.896 94.126 336.985 96.6912 340.21 94.2543C341.346 93.4115 340.888 92.1472 342.353 91.3777C343.599 90.7364 345.358 91.1761 346.641 91.3777C349.389 91.8174 352.321 93.6496 354.373 95.4086C355.784 96.6179 357.304 99.1097 359.357 99.6777C360.896 100.117 363.094 98.9632 364.468 99.5678C365.403 99.9709 365.311 101.547 366.209 102.353C368.683 104.57 370.423 103.379 373.318 104.533C375.975 105.596 377.056 108.344 380.079 108.527C382.333 112.284 375.444 114.134 378.943 117.762C381.325 120.217 387.903 119.521 391.091 121.665C392.887 122.874 393.235 124.376 395.323 125.238C396.991 125.915 398.512 125.567 400.142 126.538C405.144 129.543 401.736 130.808 398.31 132.402C399.849 139.236 393.235 134.142 391.402 132.695C389.369 131.082 382.26 127.143 381.801 132.273C380.757 132.145 380.024 132.713 379.071 132.75C378.375 135.223 380.244 136.781 381.856 138.118C384.202 140.079 385.264 141.325 386.932 143.652C388.874 146.363 395.745 154.608 386.913 154.352C385.264 151.384 380.482 150.321 379.328 147.701C378.577 147.481 377.624 147.444 376.946 147.701C377.459 151.86 382.773 153.216 386.107 154.81C386.272 156.569 389.882 158.914 389.021 160.801C387.958 163.147 384.715 159.592 382.974 158.658C380.556 157.357 377.074 156.038 374.784 155.451C373.318 155.066 371.339 156.422 370.038 155.396C369.104 154.663 369.635 152.794 369.306 151.585C366.466 150.852 363.369 150.211 364.047 146.583C362.728 146.913 361.335 146.711 360.822 145.52C357.854 146.088 356.48 142.974 354.043 143.029C351.973 143.065 350.232 144.897 348.07 145.117C340.448 145.905 341.034 139.95 347.722 139.126C349.719 138.888 355.087 139.767 356.645 138.705C358.642 137.349 355.82 136.066 356.7 133.794C357.982 130.478 366.429 129.25 367.363 133.648C370.35 133.574 372.677 132.621 371.321 129.36C369.635 125.311 366.026 128.939 363.461 126.52C361.445 124.615 363.846 119.667 360.181 119.081C358.037 118.733 353.457 124.67 354.483 119.118C355.014 116.168 357.561 115.93 354.574 112.961C350.543 108.967 342.298 109.187 337.021 108.436C334.035 108.014 331.946 106.127 328.923 106.017C325.973 105.907 321.282 108.234 318.772 105.633C316.519 106.549 314.045 105.138 311.81 105.229C309.465 105.321 307.229 106.695 305.03 106.659C299.937 106.549 300.505 102.756 298.434 99.2563C296.785 96.4713 294.66 92.6969 296.804 89.179C298.361 86.6322 303.986 84.1403 306.368 82.7478C309.318 83.9204 311.077 83.9571 312.781 87.0719C314.155 89.6004 314.027 91.8541 312.726 94.8406C309.355 95.6102 310.142 90.2966 309.959 88.2079C310.307 88.043 311.132 88.1346 311.004 87.7682C310.765 87.0719 309.849 87.3467 309.098 88.098C308.347 88.8492 308.42 89.7836 308.512 91.6892L308.53 91.7624Z" fill="#8E8E8E" fill-opacity="0.15"/>
<path d="M374.546 60.0647C375.499 59.9364 377.148 59.8082 377.99 59.7166C379.676 59.5333 380.867 59.57 382.443 59.0753C385.466 58.1408 387.555 55.1909 382.974 54.3664C381.178 54.0366 380.024 55.6307 378.339 55.8139C376.781 55.9788 375.462 55.0627 374.161 54.6413C371.358 53.6885 368.261 53.9633 364.926 53.2488C367.034 50.9951 372.97 46.8359 375.938 50.0606C377.697 49.4377 378.595 47.862 380.097 46.8359C382.26 45.3701 382.956 45.9747 385.448 45.4984C388.343 44.9304 390.669 42.695 392.52 40.423C394.059 38.5358 396.826 35.421 393.308 34.4499C390.083 33.5521 386.437 36.9968 382.992 35.8058C385.466 31.042 394.829 29.8144 399.611 27.9455C403.184 26.553 404.814 25.8384 407.105 22.8885C408.571 21.0013 410.714 18.033 413.829 19.4805C408.021 21.4227 415.038 26.2415 416.541 21.9907C417.127 20.3417 414.525 19.4255 416.083 18.0514C417.2 17.0803 420.187 18.711 421.085 18.711C424.236 18.711 429.825 18.4545 432.5 17.007C434.607 15.871 433.599 14.1853 436.421 15.9443C437.575 16.6589 437.941 18.5094 438.986 19.4439C440.305 18.033 440.342 15.0648 442.449 14.1304C444.482 13.2326 449.375 13.7822 451.647 13.4524C456.795 12.6829 462.438 13.5257 467.367 12.3164C467.074 11.2354 466.836 10.0628 466.653 8.87182C466.323 8.79853 466.03 8.8535 465.7 8.76189C465.663 8.56034 465.627 8.35879 465.572 8.17557C464.271 7.44267 462.274 6.39829 460.625 6.67313C458.682 7.00293 458.792 8.81685 456.081 8.06563C454.615 5.5921 457.693 3.72322 459.672 2.88039C462.915 1.46956 464.124 2.0742 466.433 5.22566C468.668 4.60269 469.951 2.29407 472.039 2.16581C473.432 2.0742 476.437 3.64993 477.756 4.21792C479.662 5.02411 481.127 6.23339 483.436 5.9952C486.734 5.66539 485.323 4.5294 487.082 2.53226C489.776 -0.527587 496.646 0.608404 500.549 0.993175C504.525 1.37795 508.666 1.9093 512.935 2.12917C512.99 6.19675 504.837 3.77818 504.855 8.43208C511.451 11.382 519.44 8.81685 526.164 7.00293C530.396 5.84862 533.859 5.77533 538.275 6.01352C539.613 6.08681 543.039 5.4272 543.992 6.61816C545.128 8.01067 542.892 9.43982 543.295 11.3087C546.08 11.4553 549.305 11.6752 552.072 11.2904C554.161 10.9972 556.689 9.3482 558.759 10.301C558.393 11.1804 557.77 11.7484 557.055 12.3897C552.805 16.2008 544.981 14.1304 540.034 14.1487C536.443 14.167 534.464 16.1825 531.203 17.1902C528.674 17.9781 525.12 18.5277 522.536 19.4988C520.392 20.305 505.496 23.7863 511.268 27.689C515.482 30.5289 524.497 22.9618 528.179 22.0456C534.794 20.415 541.665 20.5615 548.572 19.9386C552.548 19.5904 552.347 19.4439 554.985 22.064C556.304 23.3649 555.461 24.226 558.558 23.8596C560.042 23.6947 561.471 22.6503 562.827 22.4121C565.557 21.954 568.067 23.0717 571.017 22.4854C573.949 21.8991 576.77 20.9646 579.537 20.2684C581.021 19.9019 582.634 19.0774 584.136 19.1324C585.327 19.169 585.785 19.9752 587.049 20.2867C588.937 20.7814 593.627 20.5982 594.048 22.7602C589.541 24.3909 583.935 24.7207 579.849 27.3042C578.639 28.0737 578.474 29.3563 577.009 29.906C575.726 30.3824 573.839 29.3746 572.813 29.5029C571.274 29.6861 567.005 30.9503 566.033 32.3062C563.432 35.9157 567.847 34.6698 569.606 35.2378C574.004 36.6669 569.661 38.0411 568.159 39.7818C566.601 41.5957 566.363 43.5195 564.531 44.9304C562.864 46.2129 559.382 46.1946 561.105 49.4194C563.12 50.079 562.717 53.945 564.952 55.5391C567.188 57.1331 569.643 56.5834 572.062 57.3896C569.313 60.706 554.912 55.3925 556.836 62.2451C559.108 63.6559 561.984 62.923 564.311 64.0773C563.12 65.5248 560.647 66.2027 558.961 66.6425C558.796 68.9328 561.563 69.0793 563.175 70.0871C563.926 70.5451 564.916 71.333 565.319 71.5895C566.143 72.1209 565.63 73.5134 567.756 73.0736C567.921 74.118 567.939 75.5105 567.756 76.5549C566.162 76.0419 561.545 76.1335 561.031 78.0207C560.537 79.798 564.238 80.2011 562.131 82.9677C559.767 82.3997 555.498 79.1384 554.948 76.6465C550.295 77.1412 545.183 74.5577 544.615 81.1721C542.049 80.9889 538.715 80.3476 536.168 81.6302C535.38 85.0931 538.367 84.4885 539.448 86.4673C540.547 88.4828 538.935 90.7548 538.66 92.5687C542.672 92.7702 545.274 91.7992 549.012 92.9718C551.907 93.8879 553.593 95.8118 556.011 97.3142C556.084 98.5418 555.956 99.6045 555.645 100.759C551.724 102.628 551.009 98.7617 548.994 97.1859C546.685 95.3903 544.816 96.0683 541.885 97.3142C542.324 100.063 541.372 100.118 540.767 101.876C539.887 104.405 539.063 104.332 542.104 105.449C545.219 106.604 552.145 104.552 554.344 106.86C552.347 109.993 544.211 109.847 541.115 111.477C535.472 114.427 531.99 114.721 525.797 115.398C523.47 115.655 521.015 115.93 518.688 116.388C515.409 117.029 514.144 118.751 511.579 120.4C510.59 121.023 509.674 120.162 508.794 121.188C507.951 122.178 508.886 123.314 508.373 124.321C507.145 126.667 504.617 126.905 504.745 129.946C502.638 130.899 500.622 132.493 498.387 133.226C496.28 133.922 493.715 133.574 491.718 134.362C488.291 135.718 485.525 139.969 483.088 142.479C480.871 144.769 481.146 145.392 479.881 148.177C479.13 149.845 477.28 150.669 476.473 152.172C474.385 155.983 476.95 160.545 474.201 164.283C473.267 165.565 468.43 171.08 466.341 170.677C464.729 170.366 463.611 165.748 461.724 164.576C459.25 163 456.612 162.707 454.267 160.582C451.976 158.511 449.466 156.184 447.634 153.876C446.168 152.043 444.629 149.442 443.566 147.389C442.174 144.678 442.65 142.186 440.726 139.987C439.884 139.034 438.051 139.364 438.216 137.129C438.344 135.462 440.012 135.791 440.47 134.674C441.239 132.768 442.284 128.059 441.349 126.117C439.664 126.374 438.033 127.345 436.219 127.106C436.072 123.479 441.643 122.984 444.244 122.837C444.721 119.558 441.148 119.521 440.818 116.828C440.47 114.079 443.401 114.647 444.043 112.632C445.857 106.915 437.227 107.813 434.753 106.072C434.478 102.756 438.18 103.416 439.774 101.235C441.148 99.348 440.305 94.7857 437.85 93.7413C432.756 91.6159 435.376 99.348 432.225 99.0548C430.044 98.8533 431.419 91.6892 431.162 90.0768C430.631 86.6872 428.707 86.3207 426.765 84.1404C425.354 82.5463 424.419 80.2377 423.21 78.4604C421.598 76.0785 419.564 74.3012 417.842 72.3224C416.229 70.4718 414.818 66.7341 412.18 65.8546C411.099 65.4881 408.076 66.3126 406.573 66.2394C404.778 66.1477 402.982 66.331 401.187 66.2394C397.522 66.0561 394.755 66.4959 391.237 66.9539C388.324 67.3387 385.136 68.9511 382.351 69.0977C377.312 69.3725 375.205 64.3155 371.339 62.6115C370.973 61.4755 371.358 60.8892 372.347 60.5411C372.695 60.4128 374.161 60.2479 374.601 60.193L374.546 60.0647Z" fill="#8E8E8E" fill-opacity="0.15"/>
<path d="M1188.65 255.968C1189.99 256.866 1190.9 258.332 1192.31 259.23C1194.53 260.641 1196.12 258.643 1197.86 259.431C1197.35 261.209 1194.2 260.714 1195.46 263.389C1195.79 263.517 1197.08 263.755 1197.42 263.865C1197.06 264.745 1192.83 265.862 1191.85 266.632C1190.86 267.42 1191.89 268.318 1190.22 268.996C1189.8 269.16 1188.32 268.024 1187.6 268.043C1183.43 268.226 1182.29 270.04 1181.52 272.825C1181.3 273.613 1177.8 272.642 1176.96 271.909C1177.16 270.296 1179.12 269.435 1179.47 267.695C1179.76 266.174 1178.3 264.323 1178.39 262.766C1180.38 262.491 1181.48 261.758 1182.56 259.798C1183.17 257.929 1184.01 255.73 1184.54 253.88C1185.08 252.011 1185.33 250.472 1187.6 252.744C1188.12 253.257 1187.7 255.29 1188.67 255.95L1188.65 255.968Z" fill="#8E8E8E" fill-opacity="0.15"/>
<path d="M1175.82 281.619C1173.83 284.075 1173.72 289.15 1172.01 292.045C1170.86 294.005 1167.27 298.769 1164.13 297.945C1164.54 296.919 1164.41 295.673 1164.44 294.83C1162.96 295.398 1162.04 296.809 1160.21 296.992C1162.12 301.756 1150.43 301.774 1147.79 304.046C1145.74 305.805 1143.9 307.601 1141.94 309.323C1141.45 309.763 1140.73 309.36 1140.13 310.001C1139.69 310.459 1140.2 311.65 1139.89 311.906C1138.92 312.731 1138.74 313.409 1137.07 313.354C1136.92 315.479 1140.63 316.139 1138.5 318.374C1138.68 320.829 1141.1 322.845 1139.2 325.318C1140.13 325.758 1141.21 325.85 1142.18 325.355C1142.22 325.557 1141.67 326.931 1141.72 327.132C1147.42 326.748 1146.03 323.303 1146.36 319.419C1146.52 317.605 1148.56 317.22 1146.67 315.168C1145.22 313.592 1143.26 314.966 1141.71 313.189C1141.98 312.584 1142.18 312.236 1142.73 311.833C1143.08 312.364 1143.57 312.529 1143.87 313.226C1145.72 313.665 1146.73 312.896 1145.99 311.228C1148.34 309.524 1153.76 305.127 1156.36 306.794C1158.49 308.169 1158.89 315.864 1162.98 313.592C1162.81 311.43 1164.85 310.477 1164.88 308.37C1166.66 307.802 1169.94 308.517 1171.19 309.323C1171.08 308.718 1171.33 307.912 1171.3 307.289C1172.56 307.417 1173.5 308.095 1174.03 308.975C1174.85 307.894 1174.7 304.229 1175.84 303.661C1177.84 302.672 1176.94 307.692 1177.34 308.608C1181.12 309.268 1181.12 304.431 1181.23 302.269C1181.41 298.678 1181.83 296.809 1182.57 293.621C1183.19 290.872 1183.72 288.362 1184.42 285.522C1185.08 282.847 1186.12 277.992 1185.79 275.591C1183.32 274.803 1180.13 274.73 1179.84 277.973C1182.35 278.706 1180.81 280.612 1178.77 280.117C1179.12 278.541 1178.77 277.075 1176.99 277.369C1177.05 278.157 1176.59 279.128 1176.59 279.806C1176.59 280.483 1176.48 280.832 1175.88 281.583L1175.82 281.619Z" fill="#8E8E8E" fill-opacity="0.15"/>
<path d="M1148.32 315.168C1147.92 316.267 1149.9 314.692 1151.25 315.095C1152.04 313.776 1153.63 314.197 1155.19 314.38C1154.99 312.273 1158.03 310.093 1154.51 309.47C1153.49 309.287 1147.35 311.119 1147.35 312.603C1147.35 313.024 1147.24 314.582 1147.84 313.959C1148.45 313.354 1148.61 314.417 1148.34 315.168H1148.32Z" fill="#8E8E8E" fill-opacity="0.15"/>
<path d="M1088.55 440.109C1089.84 438.844 1093.06 443.095 1093.94 444.726C1095.55 447.731 1094.42 447.603 1092.02 449.984C1090.75 451.23 1088.08 453.063 1088.53 455.078C1088.83 456.361 1090.64 456.104 1091.34 457.204C1092.03 458.303 1092.18 459.787 1092.18 461.051C1097.57 462.81 1093.65 465.339 1091.41 467.153C1089.29 468.893 1087.64 471.807 1086.52 474.353C1085.33 477.065 1086.32 480.143 1085.36 482.837C1084.14 486.391 1080.42 484.284 1078.9 488.113C1077.12 488.223 1076.75 487.271 1075.1 486.849C1073.31 486.391 1072.01 486.849 1070.14 486.776C1065.91 486.574 1066.11 484.87 1064.64 481.481C1062.85 477.322 1055.55 470.689 1055.79 466.108C1056.05 461.583 1060.5 463.855 1063.3 462.077C1066.02 460.337 1065.25 457.643 1068.18 456.031C1071.38 454.272 1074.48 454.84 1077.27 451.835C1079.01 449.966 1080.09 448.152 1082.07 446.393C1083.42 445.202 1084.81 444.176 1086.08 442.912C1086.9 442.088 1087.78 440.86 1088.57 440.054L1088.55 440.109Z" fill="#8E8E8E" fill-opacity="0.15"/>
<path d="M1149.82 520.251C1151.86 520.141 1155.85 521.68 1158.01 522.321C1159.96 522.908 1164.08 523.366 1162.94 526.975C1161.22 528.075 1159.48 532.087 1159.08 534.139C1158.29 537.987 1159.81 539.05 1161.86 540.992C1165.14 544.107 1169.1 549.09 1173.33 550.153C1177.67 551.234 1181.96 544.693 1183.41 540.644C1184.4 537.877 1183.48 535.257 1183.74 532.435C1183.96 529.998 1184.54 526.682 1185.08 524.172C1186.52 517.429 1189.78 523.237 1190.79 526.994C1191.3 528.936 1191.32 530.823 1192.35 532.637C1193.38 534.433 1195.3 535.66 1196.2 537.694C1198.12 542.036 1197.79 547.35 1199.4 551.949C1200.91 556.218 1203.73 561.623 1208.88 561.275C1211.66 565.324 1213.35 570.418 1216.5 574.302C1220 578.59 1225.95 579.414 1227.44 585.076C1228.88 590.554 1228.48 597.92 1226.74 603.233C1224.8 609.17 1223.85 615.033 1221.76 621.024C1220.31 625.129 1218.75 628.646 1217.03 632.806C1215.4 636.763 1216.1 641.344 1211.79 643.524C1208.82 642.113 1206.07 646.712 1204.02 648.49C1201.11 651.018 1200.06 651.898 1197.09 649.919C1195.7 649.003 1196.49 648.105 1194.35 647.757C1192.73 647.5 1191.14 648.453 1189.69 648.801C1185.94 649.736 1183.63 649.021 1180.16 647.702C1179.29 645.393 1178.79 643.561 1177.53 641.435C1176.39 639.512 1175.44 638.925 1174.14 637.35C1172.51 635.371 1173.61 632.311 1172.18 630.662C1170.05 628.152 1168.82 631.212 1166.92 632.494C1166.15 631.413 1166.18 630.167 1165.45 628.903C1166.26 627.346 1169.83 624.048 1167.91 621.849C1165.82 619.449 1163.73 623.553 1162.74 625.055C1160.78 628.024 1160.06 630.405 1156.97 627.822C1155.15 626.319 1153.89 623.37 1152.42 621.409C1148.45 616.059 1144.29 614.355 1137.47 615.015C1133.64 615.381 1131.1 615.601 1127.76 617.048C1124.61 618.423 1122.43 617.69 1119.65 619.742C1117.26 621.482 1114.74 624.671 1111.73 625C1108.82 625.312 1106.25 624.561 1103.23 625.055C1102.61 625.66 1102.86 625.422 1101.78 625.77C1100.08 627.419 1096.71 629.416 1094.16 630.607C1091.32 631.945 1090.07 631.322 1087.12 630.332C1079.52 627.804 1084.08 623.938 1082.4 617.58C1081.66 614.776 1081.02 612.743 1080.73 610.031C1080.49 607.759 1080.33 603.618 1079.56 601.456C1078.02 597.114 1071.48 593.394 1071.13 589.033C1074.52 588.319 1076.22 591.837 1077.83 587.897C1079.5 583.83 1076.24 582.73 1074.33 580.055C1069.94 573.917 1078.18 570.711 1083.07 568.641C1088.66 566.295 1094.03 562.704 1099.38 559.663C1103.12 557.537 1108.49 554.606 1108.47 549.787C1108.47 548.083 1105.87 544.198 1109.18 544.052C1111.71 543.942 1112.02 549.329 1115.07 545.847C1116.79 543.869 1115.1 541.908 1117.8 539.893C1120.09 538.17 1122.06 538.958 1121.7 534.891C1126.9 532.985 1129.19 538.702 1134.76 537.016C1135.66 538.867 1139.4 539.141 1140.42 537.236C1141.94 534.396 1137.64 535.77 1139.09 532.655C1139.78 531.134 1141.45 531.556 1142.22 530.493C1143.01 529.43 1142.18 528.753 1142.92 527.635C1144.05 525.894 1143.63 524.612 1145.87 522.395C1146.69 521.57 1148.27 520.343 1149.79 520.251H1149.82Z" fill="#8E8E8E" fill-opacity="0.15"/>
<path d="M1010.21 446.522C1012.39 447.456 1014.99 448.207 1016.97 449.728C1018.65 451.029 1021.13 454.18 1022.68 456.123C1025.72 459.934 1030.84 464.771 1033.26 468.948C1034.96 471.898 1035.53 473.914 1038.62 476.167C1040.57 477.578 1043.31 477.358 1044.85 479.172C1047.09 481.829 1044.67 484.266 1043.66 486.648C1042.62 489.103 1042.69 492.914 1039.05 492.456C1036 492.071 1032.01 484.303 1030.23 482.031C1028.44 479.74 1028.75 477.981 1027.67 475.691C1026.73 473.712 1024.46 472.888 1023.1 471.349C1020.45 468.38 1019.18 463.983 1017.33 460.41C1016.36 458.523 1014.62 457.02 1013.47 455.335C1012.48 453.887 1010.66 450.901 1009.47 449.71C1008.03 448.281 1006.93 445.093 1010.19 446.503L1010.21 446.522Z" fill="#8E8E8E" fill-opacity="0.15"/>
<path d="M1117.41 466.475C1117.41 470.542 1110.39 466.09 1107.35 466.75C1104.13 467.428 1099.84 470.634 1102.86 473.895C1105.92 473.859 1110.15 473.529 1113.05 473.291C1116.4 476.919 1109.04 475.233 1107.81 475.453C1103.6 476.186 1104.49 478.293 1106.38 480.638C1107.86 482.47 1110.89 484.101 1111.35 486.428C1111.73 488.315 1110.63 493.445 1109.2 494.655C1105.76 492.896 1106.6 484.504 1102.17 482.195C1099.47 486.831 1101.62 491.686 1100.96 496.707C1097.24 497.165 1097.95 488.755 1097.37 486.501C1096.05 481.554 1097.84 479.832 1099.14 474.976C1100.3 470.726 1098.14 466.475 1103.5 465.064C1107.92 463.91 1112.68 463.635 1117.39 463.635C1118.11 463.635 1117.39 465.925 1117.39 466.493L1117.41 466.475Z" fill="#8E8E8E" fill-opacity="0.15"/>
<path d="M1104.93 384.903C1104.93 384.537 1104.88 384.207 1104.99 383.859C1109.2 382.741 1110.8 387.706 1109.48 390.601C1107.48 394.999 1104.66 395.145 1107.79 399.781C1109.53 402.346 1111.24 405.076 1113.38 407.44C1115.08 409.309 1119.33 411.251 1119.11 414.054C1118.67 413.944 1118.18 413.908 1117.74 413.779C1117.43 415.099 1116.62 415.85 1115.32 415.813C1114.53 413.101 1113.16 410.445 1111.27 408.484C1109.15 406.249 1106.77 406.432 1104.36 404.765C1100.48 402.09 1098.89 391.298 1102.07 388.11C1102.75 387.432 1104.91 385.673 1104.91 384.903H1104.93Z" fill="#8E8E8E" fill-opacity="0.15"/>
<path d="M1316.15 643.488C1316.15 649.955 1319.34 644.495 1321.6 646.236C1323.28 647.537 1321.12 648.141 1320.88 649.186C1320.75 649.754 1320.61 652.447 1320.44 652.74C1319.07 655.214 1319.05 652.905 1317.58 654.17C1315.99 655.544 1316.89 655.086 1316.15 657.376C1315.53 659.373 1314.25 664.174 1311.21 663.367C1311.1 661.553 1311.48 659.63 1310.46 658.091C1309.41 656.551 1307.32 656.9 1306.63 655.855C1304.83 653.143 1309.78 651.513 1309.37 647.757C1308.95 643.744 1300.38 634.784 1302.71 631.065C1306.96 631.908 1309.5 642.407 1313.66 642.407C1314.5 642.407 1316.15 642.058 1316.15 643.469V643.488Z" fill="#8E8E8E" fill-opacity="0.15"/>
<path d="M1305.11 665.933C1305.11 669.505 1301.55 670.403 1300.47 672.694C1299.77 674.178 1300.43 675.717 1299.48 677.329C1298.78 678.52 1297.41 679.931 1296.48 680.884C1295.27 682.13 1294.09 682.588 1293.67 684.438C1293.42 685.629 1294.13 687.113 1293.76 688.432C1292.94 691.419 1290.47 692.482 1287.61 691.474C1286.32 691.016 1285.76 689.605 1284.42 689.404C1283.36 689.257 1281.49 690.814 1280.85 690.485C1278.24 689.22 1282.2 685.629 1283.34 684.347C1286.58 680.682 1289.22 677.018 1292.61 673.738C1293.45 672.913 1302.01 659.245 1302.93 664.119C1304.13 664.119 1305.07 664.76 1305.07 665.896L1305.11 665.933Z" fill="#8E8E8E" fill-opacity="0.15"/>
<path d="M1145.19 473.236C1148.52 473.236 1152.42 475.544 1155.47 476.149C1155.52 480.84 1158.56 485.878 1163.45 482.232C1164.99 481.078 1165.62 478.531 1168.33 478.549C1170.99 478.549 1172.32 481.059 1174.28 482.232C1175.82 483.167 1178.22 483.954 1179.98 484.724C1182.53 485.86 1185.3 485.347 1187.73 486.318C1192.24 488.095 1194.46 492.841 1199.9 492.511C1200.36 496.908 1204.37 493.794 1206.37 496.102C1207.45 497.33 1207.1 501.855 1207.52 503.486C1208.69 508.085 1215 510.65 1215.31 515.194C1213.69 515.451 1212.8 514.516 1211.46 514.516C1209.66 514.516 1207.94 515.524 1206.37 514.974C1204.42 514.315 1203.71 511.401 1202.88 509.899C1201.58 507.517 1196.86 500.591 1192.62 503.394C1190.7 504.677 1191.51 507.022 1189.36 508.543C1185.73 511.127 1186.16 508.177 1182.97 506.967C1181.54 506.418 1180.27 506.931 1179.01 506.619C1178.19 506.418 1177.03 505.483 1175.9 505.19C1173.66 504.604 1171.24 505.007 1169.12 505.575C1167.38 501.617 1170.66 501.947 1171.94 499.217C1172.96 497.037 1171.13 494.82 1170.07 493.226C1164.74 491.063 1159.44 484.284 1153.45 484.687C1152.48 484.761 1150.43 487.491 1149.16 485.347C1147.92 483.24 1151.18 482.342 1151.27 480.693C1151.44 477.267 1147.04 476.827 1145.19 474.995C1144.71 474.518 1144.27 473.217 1145.19 473.217V473.236Z" fill="#8E8E8E" fill-opacity="0.15"/>
<path d="M1047.95 499.235C1051.23 502.515 1057.62 502.863 1061.82 503.889C1064.73 504.604 1067.59 505.886 1070.49 506.619C1072.59 507.15 1075.4 506.656 1077.41 507.755C1079.08 504.622 1073.35 501.983 1071.48 501.012C1067.59 498.997 1065.78 499.18 1061.47 499.602C1055.94 500.151 1048.74 490.843 1045.09 497.11C1045.73 497.751 1046.96 498.264 1047.93 499.253L1047.95 499.235Z" fill="#8E8E8E" fill-opacity="0.15"/>
<path d="M1111 437.617C1113.47 435.143 1114.81 436.279 1116 437.947C1117.56 440.127 1116.68 441.868 1119.92 440.823C1124.68 439.284 1124.56 432.102 1123.05 428.419C1120.21 428.181 1118.53 430.984 1116.35 432.322C1112.98 429.628 1110.91 433.824 1108.52 436.188C1107.72 436.994 1110.26 438.368 1111.02 437.617H1111Z" fill="#8E8E8E" fill-opacity="0.15"/>
<path d="M1188.28 201.477C1190.06 199.7 1189.71 206.058 1189.71 207.89C1189.71 210.932 1190.02 213.643 1190.43 216.428C1191.29 222.145 1193.49 227.294 1194.62 232.754C1192.86 233.743 1191.41 232.479 1190.13 231.453C1186.41 236.4 1193.06 242.868 1191.03 246.257C1186.72 253.403 1186.5 239.02 1186.5 236.748C1186.5 231.288 1185.95 226.231 1185.79 220.716C1185.7 217.473 1183.98 216.282 1183.99 213.24C1183.99 210.529 1185.44 208.825 1185.44 205.765C1185.44 204.574 1187.31 202.467 1188.3 201.496L1188.28 201.477Z" fill="#8E8E8E" fill-opacity="0.15"/>
<path d="M619.114 186.16C619.37 185.134 619.114 183.65 619.462 182.605C619.865 181.378 620.872 180.681 621.294 179.454C623.181 178.574 628.183 173.224 629.081 176.907C629.686 179.344 625.838 181.854 625.929 184.676C627.597 185.555 629.337 185.5 631.17 185.867C632.544 188.835 628.531 190.191 629.008 193.58C629.282 195.449 632.581 197.483 634.065 199.004C635.97 200.946 637.363 202.796 638.425 205.05C639.506 207.34 639.836 210.254 641.485 211.903C643.702 214.12 647 212.855 645.846 216.813C645.37 218.407 642.42 222.255 640.936 222.969C638.645 224.05 634.156 223.226 631.518 223.226C629.96 223.226 628.879 222.805 627.322 223.226C625.618 223.684 624.61 225.351 623.035 225.828C622.631 225.956 622.338 226.286 621.972 226.469C615.064 224.637 626.992 219.323 628.256 217.619C625.6 216.263 622.87 218.242 621.587 214.688C623.529 213.204 622.228 211.371 623.016 210.4C624.61 208.495 626.589 209.814 627.67 206.498C628.861 202.815 628.055 196.164 622.686 200.103C620.873 199.04 619.682 197.538 619.535 195.522C620.872 194.24 621.825 190.667 620.543 189.384L619.114 186.178V186.16Z" fill="#8E8E8E" fill-opacity="0.15"/>
<path d="M611.986 197.904C616.09 200.488 616.42 200.103 616.695 205.38C616.951 210.327 615.852 211.775 611.913 214.578C610.026 215.915 604.584 219.525 602.733 217.839C599.509 214.908 604.859 211.756 604.456 208.99C598.629 206.259 611.601 206.406 607.369 202.155C606.196 200.983 610.099 196.677 612.004 197.886L611.986 197.904Z" fill="#8E8E8E" fill-opacity="0.15"/>
<path d="M904.779 61.494C901.627 65.36 893.437 67.5954 888.856 68.9696C883.433 70.5819 877.46 70.985 872.293 73.1471C864.854 76.2619 848.859 88.1165 855.729 97.0945C856.591 98.2122 857.012 99.1283 858.423 99.6596C860.054 102.976 849.573 103.489 848.217 102.371C846.788 101.18 848.859 98.6885 847.704 97.1128C846.367 95.2989 843.82 96.1051 841.786 96.3249C839.99 93.9614 843.417 89.8938 844.644 87.5485C846.66 86.6874 854.538 86.5957 853.714 83.9756C852.285 83.9207 850.892 83.4076 849.866 82.5098C851.222 80.8059 853.274 79.3217 854.612 77.5994C855.491 76.4818 856.078 76.4268 856.334 75.016C856.481 74.1731 855.235 72.4142 855.583 71.8095C856.847 69.5925 860.896 71.1866 863.022 70.7652C865.385 70.2888 867.309 68.5115 869.526 67.5404C878.229 63.6927 889.424 65.0852 897.999 61.494C899.832 60.7245 905.768 60.2664 904.76 61.494H904.779Z" fill="#8E8E8E" fill-opacity="0.15"/>
<path d="M1026.22 47.6055C1027.83 45.5534 1031.4 41.5407 1033.77 40.8262C1036.33 40.0566 1042.51 43.1165 1044.07 44.7655C1042.51 47.5871 1037.38 46.1397 1034.74 46.8909C1032.01 47.6604 1029.08 51.0501 1026.22 49.6942C1025.87 49.8225 1026.16 50.1889 1025.87 50.4821C1025.6 50.7569 1024.5 50.9218 1024.5 50.2256C1024.5 49.5293 1025.43 48.6315 1026.22 47.6238V47.6055Z" fill="#8E8E8E" fill-opacity="0.15"/>
<path d="M998.791 37.6197C999.799 35.4577 1011.62 33.9003 1014.07 35.1829C1014.07 36.4288 1014.11 37.748 1014.16 38.9939C1017.2 39.397 1020.3 32.4711 1022.94 36.2639C1023.78 37.4732 1022.74 41.0827 1022.3 42.237C1021.33 44.7838 1021.99 44.7472 1019.07 44.7472C1015.89 44.7472 1012.53 41.9805 1009.2 41.5408C1006.85 41.2293 995.603 40.7895 997.71 38.6825C998.04 38.3526 998.553 38.1145 998.773 37.6197H998.791Z" fill="#8E8E8E" fill-opacity="0.15"/>
<path d="M997.38 28.7151C999.506 27.1577 1003.54 24.4826 1006.28 24.446C1009.6 24.4093 1013.65 26.6996 1012.59 30.4557C1009.89 30.6573 1007.42 32.1781 1004.87 32.288C1002.16 32.4162 999.89 30.8588 997.38 30.8588C996.647 30.8588 996.043 29.7045 997.38 28.7151Z" fill="#8E8E8E" fill-opacity="0.15"/>
<path d="M678.607 260.237C674.136 258.625 674.191 257.91 669.793 259.834C667.778 260.714 663.289 262.803 661.42 260.659C658.195 261.703 654.659 262.088 652.864 265.13C651.031 268.244 650.793 270.901 648.631 273.723C643.995 274.73 641.705 275.079 640.496 279.842C639.965 281.931 639.983 284.185 639.342 286.237C638.755 288.106 637.564 289.645 637.234 291.532C633.753 292.577 631.041 294.665 627.597 295.783C625.618 296.406 623.932 296.644 621.972 297.285C620.195 297.872 619.627 299.539 617.41 299.008C616.53 293.767 608.816 293.511 605.647 291.166C603.503 284.899 608.487 277.222 607.479 270.59C606.086 261.355 611.143 263.499 617.703 264.158C620.818 264.47 623.181 264.983 625.966 265.514C627.249 265.752 629.557 265.862 630.877 265.588C633.552 265.02 632.617 265.368 634.065 263.059C637.454 257.672 637.693 253.22 634.431 247.76C631.793 243.344 624.207 240.981 624.867 235.356C627.194 235.172 631.078 236.528 633.02 235.319C634.138 234.623 634.12 232.919 635.146 232.167C636.502 231.16 637.546 231.893 638.975 231.38C643.977 229.621 646.524 224.802 650.445 221.485C652.717 219.562 656.308 220.643 658.379 218.352C660.449 216.062 658.379 213.845 661.145 212.123C661.896 211.665 663.747 211.866 664.681 211.426C665.762 210.932 666.862 209.631 667.925 208.935C670.343 207.359 672.395 207.102 675.327 207.432C678.478 202.925 674.301 195.248 676.591 190.099C676.738 190.008 678.057 189.513 678.222 189.476C681.813 191.18 679.688 194.222 679.211 196.75C678.735 199.297 679.046 200.543 680.787 202.815C683.37 203.475 684.03 204.629 686.778 204.647C689.27 204.647 691.945 203.475 694.199 204.354C694.052 205.05 694.455 206.058 694.309 206.736C697.68 208.843 701.125 205.985 704.203 204.666C708.252 202.943 710.011 201.99 714.17 202.613C721.261 203.676 724.009 199.81 725.255 193.269C725.64 191.29 725.402 186.453 727.729 186.123C730.642 185.702 730.789 191.272 733.519 190.612C738.759 189.348 732.419 178.061 734.508 175.46C736.615 172.821 741.947 174.598 744.86 174.397C747.627 174.195 753.325 172.894 755.487 171.117C754.993 168.772 752.354 167.691 750.834 166.243C748.726 166.976 746.381 166.078 744.128 166.463C742.185 166.793 740.298 167.453 738.429 168.24C734.636 169.816 730.422 171.868 726.593 168.79C719.832 163.385 725.805 154.151 730.496 150.468C733.555 148.086 734.838 144.421 737.623 141.545C739.602 139.511 741.947 137.294 739.125 134.564C735.369 130.936 724.211 134.326 722.764 139.493C721.774 142.974 723.606 144.733 720.968 147.335C719.026 149.258 715.563 149.863 713.492 151.219C707.373 155.232 708.014 159.959 708.197 166.5C710.524 167.581 714.464 170.366 711.66 172.968C712.32 173.572 713.712 175.111 713.163 176.192C712.43 177.622 710.579 176.541 709.223 176.907C706.328 177.677 705.797 179.49 705.65 182.605C705.559 184.749 707.208 188.56 705.742 190.081C704.386 191.51 703.232 190.081 701.381 190.429C699.824 190.722 699.073 191.638 697.827 192.499C695.5 194.112 694.529 195.504 692.202 192.848C690.938 191.4 690.113 188.798 689.197 186.948C687.933 184.364 687.768 181.396 686.448 179.014C685.404 177.127 683.095 172.381 681.74 171.337C677.874 172.271 676.316 178.373 672.798 180.352C666.953 183.65 665.634 178.703 665.414 173.334C665.249 169.523 663.967 164.301 665.066 160.875C666.202 157.394 669.574 155.012 672.835 153.326C671.901 144.879 679.284 153.381 683.224 151.256C686.632 149.405 684.69 141.929 682.564 139.236C683.938 137.312 686.833 136.359 688.867 135.883C689.105 134.839 688.427 132.072 688.995 131.394C690.26 129.873 691.396 131.376 692.935 130.698C694.932 129.818 697.918 126.997 699.696 125.329C701.4 123.717 702.609 121.518 704.624 119.943C707.299 117.835 708.087 116.773 706.182 113.237C709.278 109.004 714.812 113.676 718.604 109.279C720.418 110.195 721.921 109.169 723.441 108.473C720.198 102.665 728.755 106.86 731.778 105.065C732.694 104.515 733.336 103.507 733.812 103.178C734.05 103.013 733.739 102.17 734.325 101.822C734.838 101.529 735.937 102.115 736.121 102.023C737.458 101.327 739.84 100.118 741.617 100.374C740.994 101.62 740.243 102.023 739.95 103.471C743.669 103.929 744.439 101.638 748.03 103.837C746.4 99.7513 748.818 100.228 751.383 102.445C752.702 103.599 753.051 104.314 754.516 104.68C755.652 104.973 757.246 104.075 758.731 104.643C758.199 106.824 755.084 106.347 753.49 107.52C753.49 107.795 753.71 109.187 753.857 109.499C757.759 111.386 762.597 108.344 766.536 108.491C769.889 108.619 773.205 111.551 776.155 113.127C779.856 115.105 783.576 117.121 787.478 118.898C789.109 119.649 790.721 120.602 792.535 121.408C794.514 122.27 796.64 122.251 798.618 123.167C798.783 123.442 798.747 124.157 798.747 124.468C802.008 125.989 796.603 129.727 795.119 130.313C792.572 131.302 788.853 131.797 786.159 132.035C783.118 132.31 779.508 131.211 776.87 130.24C774.726 129.452 772.344 126.612 769.467 127.748C765.675 129.214 769.138 131.083 770.457 133.19C771.758 135.242 772.014 137.88 773.315 140.207C776.467 145.924 779.105 146.968 785.866 146.968C786.342 146.968 787.295 146.052 787.295 145.191C787.295 140.958 782.183 142.644 782.715 138.833C788.156 137.734 791.418 146.693 795.119 140.555C795.705 139.584 795.687 137.789 796.328 136.964C797.189 135.901 799.076 135.37 800.212 134.582C802.301 133.153 803.474 132.402 805.819 132.347C806.79 132.329 807.01 133.556 808.751 132.805C809.905 132.31 810.931 130.716 811.169 129.507C811.646 127.107 809.905 124.56 809.722 122.031C809.502 119.026 808.568 116.37 812.855 117.029C815.567 117.451 816.3 120.291 819.213 119.943C819.414 120.511 819.451 121.353 819.286 121.958C818.095 122.508 816.996 123.259 815.86 123.864C815.457 127.07 817.197 130.423 820.44 128.737C823.134 127.327 824.673 123.717 827.916 122.379C830.683 121.243 833.284 121.738 836.088 120.272C839.532 118.458 841.511 117.286 845.267 116.754C847.283 118.092 846.843 119.869 849.298 120.199C850.434 120.346 854.813 118.55 855.986 118.074C858.899 116.883 862.564 112.412 865.275 112.504C864.781 116.113 867.547 117.652 870.387 116.37C873.227 115.087 874.693 111.679 877.808 110.653C879.933 109.939 886.969 110.085 888.838 111.093C892.081 112.852 891.55 115.527 896.607 114.977C899.062 119.961 903.624 119.045 904.925 114.299C905.713 111.441 903.698 106.164 900.638 104.918C898.347 99.9345 903.075 97.8091 905.475 94.2912C906.702 92.4956 906.757 89.0876 908.773 87.9333C910.843 86.7606 915.112 88.3913 917.275 88.2814C917.238 88.8677 917.274 89.3624 917.018 89.9304C918.557 91.5245 915.974 96.5815 916.34 99.1833C916.853 102.756 918.447 106.146 919.363 109.59C920.481 113.823 918.319 115.49 917.751 119.301C917.366 121.848 918.356 128.682 913.812 128.444C912.767 124.45 902.745 125.604 903.056 128.133C903.276 129.91 908.022 130.734 909.487 131.412C912.236 132.695 912.584 133.373 915.442 131.944C917.329 131.009 918.814 129.232 920.353 127.748C922.735 125.421 922.35 123.974 923.706 121.317C923.962 120.804 926.601 117.048 927.004 116.791C929.312 115.27 930.668 116.791 932.94 117.487C933.142 120.474 935.469 122.27 935.542 125.201C937.924 126.062 941.552 127.491 943.989 126.63C946.096 123.021 941.735 123.057 940.471 120.272C940.086 119.43 941.222 118.587 940.856 117.762C940.544 117.066 939.866 117.231 939.518 116.626C938.822 115.435 937.429 114.006 936.275 113.438C935.176 108.839 927.773 111.679 925.538 109.242C924.787 108.418 924.127 104.35 923.761 103.178C923.083 101.034 923.211 99.2382 921.745 97.3877C923.486 95.2989 924.494 92.4223 926.234 90.6633C928.689 91.3779 928.524 93.998 929.697 95.7753C930.613 97.1678 932.134 98.6519 933.417 99.5314C934.864 100.521 937.796 102.261 939.683 101.73C941.35 101.272 942.963 98.8168 940.177 98.4687C938.822 95.8303 934.919 95.2256 934.827 91.4512C936.898 91.4512 937.594 93.8148 939.683 93.8331C939.884 93.8331 941.497 92.4956 942.083 92.3856C943.695 92.0925 944.044 92.349 945.473 92.7154C947.287 93.1918 949.778 94.4927 951.537 95.2806C953.04 95.9768 955.165 97.7358 956.814 97.8457C956.924 99.8062 956.32 101.767 957.914 102.866C960.076 104.369 962.513 102.939 962.934 101.364C964.033 97.2594 958.903 94.5294 957.895 91.4512C952.527 88.6479 951.299 90.8465 951.574 83.9756C955.55 81.9602 960.424 83.371 964.308 84.2871C968.852 85.3498 971.857 85.3865 976.419 84.562C978.013 80.7875 964.29 76.1703 975.045 72.8539C977.885 71.9744 981.073 71.8645 983.95 70.985C987.523 69.8857 989.905 70.5636 993.606 70.0139C996.995 69.5009 1000.4 67.2289 1003.85 67.174C1006.78 67.119 1009.14 69.1161 1012.13 68.8596C1015.32 68.5848 1017.99 66.7892 1021.05 66.4594C1024.15 66.1296 1028.51 67.5954 1031.22 66.4594C1031.77 66.2395 1032.16 66.2395 1032.69 66.0563C1032.5 65.415 1032.72 65.2135 1032.69 64.7554C1029.22 62.8132 1033.18 57.3715 1035.14 55.7041C1038.2 53.084 1041.19 53.0107 1044.78 55.4843C1045.02 59.2587 1039.91 59.0755 1046.36 60.7428C1050.57 61.8421 1051.38 63.3079 1055.88 62.1903C1058.89 61.4574 1062.5 60.2847 1065.58 61.1276C1068.1 61.8238 1070.56 63.0697 1073.29 64.0408C1072.89 65.2318 1072.47 66.8258 1072.61 68.2733C1072.91 71.4248 1075.01 69.8124 1071.9 71.9012C1069.24 73.6784 1064.99 74.338 1061.95 75.4007C1055.48 77.6727 1051.03 81.667 1046.21 86.0827C1046.45 86.3392 1047.58 87.3653 1047.75 87.4569C1050.97 87.6218 1065.81 86.3759 1065.45 82.235C1064.33 81.9235 1063.43 81.3189 1062.44 80.7509C1065.98 75.8954 1068.95 84.452 1072.19 82.1068C1074.35 80.5493 1066 77.7827 1065.1 76.8299C1066.64 74.2464 1070.25 74.8694 1072.25 76.042C1074.79 77.5445 1074.57 79.5599 1076.2 81.7953C1078.9 85.5147 1079.5 82.3083 1082.95 81.4288C1085.97 80.6593 1089.56 82.0701 1092.47 81.1357C1092.82 81.3739 1093.81 82.18 1094.2 82.4915C1093.57 83.884 1093.81 84.8734 1095.41 85.3681C1096.19 85.6063 1096.91 86.6874 1097.9 86.4308C1101.16 85.5697 1103.67 87.5485 1106.78 87.4935C1110.7 87.4386 1112.12 84.4887 1115.36 83.2244C1117.67 82.3083 1121.64 80.8059 1124.26 81.4471C1127.05 82.1251 1128.83 84.3238 1131.7 85.075C1131.85 85.3865 1132.09 86.4492 1132.14 86.7973C1129.69 89.0693 1126.96 88.1531 1128.97 92.0741C1129.83 93.7598 1132.4 96.4899 1133.79 97.9557C1135.37 99.6047 1138.92 102.811 1141.5 103.123C1143.06 103.306 1144.33 102.811 1145.61 102.151C1147.5 101.162 1147.39 99.8429 1148.49 98.9267C1151.97 96.0135 1151.76 100.154 1155.59 100.026C1159.06 99.9162 1160.34 95.2623 1164.54 96.6914C1165.76 97.1128 1166.09 98.8168 1167.69 99.3115C1169.26 99.8062 1171.22 98.9084 1172.69 98.6702C1175.84 98.1572 1177.4 98.3038 1178.3 94.9508C1179.16 91.7443 1177.12 90.7 1180.86 90.022C1182.62 89.7106 1187.11 90.3885 1188.34 90.3885C1189.36 90.3885 1192.02 89.6739 1193.32 89.6739C1195.83 89.6739 1197.46 90.3335 1198.96 91.8726C1199.51 94.4194 1195.46 95.7753 1196.25 97.5159C1197.02 99.2199 1201.6 96.9479 1202.94 96.3616C1206.46 94.8225 1210.69 90.3152 1214.28 92.9353C1214.37 93.4117 1214.45 94.1263 1214.39 94.6026C1214.68 94.8042 1215.05 94.4927 1215.36 94.7126C1215.2 97.0762 1217.14 98.0656 1218.97 98.5786C1220.22 98.9451 1221.17 97.8274 1222.47 98.6336C1223.28 99.1466 1222.98 100.777 1223.7 101.345C1227 103.929 1233.92 102.353 1237.88 102.133C1242.28 101.895 1249.13 100.356 1252.47 103.984C1253.86 105.504 1253.8 107.392 1255.58 108.638C1256.92 109.572 1261.08 110.452 1262.8 110.69C1266.26 111.166 1269.96 110.452 1273.46 110.69C1277.04 110.91 1279.6 112.247 1282.79 113.456C1285.06 114.318 1289.42 116.022 1292.02 114.629C1295.3 112.87 1292.1 108.436 1295.21 107.135C1297.61 106.127 1300.85 109.041 1303.05 109.554C1306.24 110.305 1310.16 110.323 1313.46 110.342C1319.56 110.397 1325.3 112.156 1330.48 114.519C1335.83 116.956 1341.6 118.66 1346.59 121.39C1350.01 123.259 1348.38 123.937 1349.98 127.436C1352.49 133.025 1352.78 127.62 1354.8 126.007C1357.75 123.644 1368.32 129.415 1367.51 132.787C1366.85 135.572 1363.98 135.462 1362.09 136.616C1358.57 138.76 1360.29 140.39 1359.19 143.78C1358.52 143.963 1357.21 143.963 1356.54 143.78C1355.99 141.893 1352.32 139.236 1350.44 138.485C1348.99 137.899 1347.92 138.631 1346.5 137.715C1345.14 136.836 1345.14 135.682 1343.64 134.875C1339.46 132.64 1339.3 138.063 1336.18 137.459C1333.12 136.873 1335.23 130.515 1331.54 130.734C1328.72 130.899 1330.12 136.359 1328.8 138.228C1326.49 141.526 1323.5 139.548 1320.13 139.584C1311.61 139.639 1322.64 147.225 1324.71 148.91C1324.78 151.219 1326.74 154.096 1325.39 156.258C1323.48 159.281 1320.61 156.862 1318.35 156.404C1314.93 155.726 1307.69 159.171 1304.83 162.029C1304.01 162.854 1302.6 163.458 1301.62 164.173C1299.13 166.023 1294.44 168.057 1290.65 167.673C1287.99 164.466 1286.97 164.1 1282.73 165.162C1280.24 165.785 1276.01 165.346 1274.87 168.021C1272.71 169.285 1269.89 169.578 1267.89 171.007C1265.82 172.51 1265.44 174.91 1263.97 176.797C1262.98 178.061 1261.63 178.611 1261.46 180.187C1261.33 181.304 1263.17 182.917 1263.2 184.108C1263.29 186.233 1260.71 188.505 1264.89 189.146C1265.6 190.832 1264.52 191.95 1262.8 191.199C1259.21 192.738 1260.88 197.318 1259.5 199.755C1258.05 202.302 1253.97 201.826 1252.56 205.197C1251.82 206.937 1252.96 208.55 1252.04 210.382C1251.13 212.178 1248.86 212.746 1247.41 213.955C1244.66 216.264 1243.65 219.727 1239.36 218.957C1239.62 214.816 1238.14 210.694 1237.53 206.553C1236.91 202.247 1237.84 198.656 1238.6 194.442C1239.07 191.821 1238.96 187.919 1240.61 185.867C1242 184.126 1245.76 183.192 1247.5 181.982C1251.57 179.161 1255.21 174.452 1259.17 171.282C1263.81 167.544 1268.02 165.785 1270.86 160.252C1272.13 157.778 1273.15 153.399 1268.59 155.012C1265.44 156.129 1265.82 159.427 1264.91 161.993C1261.22 162.506 1258.97 166.5 1255.78 166.756C1251.4 167.123 1256.35 162.506 1256.75 159.977C1254.21 160.142 1253.42 158.566 1250.63 159.281C1248.67 159.776 1246.69 160.563 1244.92 161.589C1241.62 163.458 1235.3 166.83 1233.63 169.908C1232.55 171.887 1233.48 173.701 1231.25 174.983C1229.8 175.808 1227.24 175.46 1225.46 175.24C1222.75 174.91 1221.13 174.214 1219.12 173.078C1216.96 171.85 1216.57 171.209 1213.69 171.667C1210.51 172.18 1207.37 173.939 1204 174.177C1202.19 174.305 1200.69 174.122 1199.11 173.444C1197.99 172.968 1196.82 171.41 1195.9 171.19C1191.01 170.054 1182.29 177.805 1178.77 180.846C1176.37 182.917 1174.01 185.647 1171.33 187.424C1167.87 189.714 1166.55 189.934 1164.5 193.397C1163.23 195.504 1159.77 197.941 1159.92 200.525C1160.12 204.134 1163.73 202.852 1165.93 204.152C1167.16 209.686 1177.38 201.935 1179.8 208.44C1181.39 212.746 1180 220.093 1179.16 224.747C1178.24 229.767 1176.72 235.612 1174.26 240.064C1171.52 245.048 1167.25 250.966 1163.58 255.107C1161.16 257.837 1155.32 266.064 1151.07 264.928C1150.83 263.297 1149.49 262.418 1147.81 262.491C1143.81 262.619 1138.22 271.964 1135.79 274.694C1134.12 276.563 1131.9 278.01 1130.8 280.337C1129.63 282.811 1130.8 285.028 1132.23 288.088C1134.16 292.21 1138.11 297.927 1134.91 302.306C1133.26 304.578 1129.25 306.208 1127.87 303.827C1126.92 302.159 1127.73 296.992 1127.45 294.977C1125.51 293.676 1123.18 292.98 1121.9 290.561C1120.6 288.088 1121.86 286.695 1121 284.258C1119 278.56 1113.82 281.015 1110.14 283.965C1101.36 291.019 1108.8 280.557 1107.48 277.461C1105.3 272.349 1097.64 281.107 1095.19 283.269C1093.22 284.991 1091.17 286.017 1092.68 289.15C1093.39 290.653 1097.02 292.632 1098.39 293.035C1100.5 293.658 1106.14 292.393 1107.94 293.822C1110.85 296.168 1104.57 298.128 1102.83 299.466C1097.73 303.35 1098.26 306.886 1101.96 311.577C1103.43 313.427 1106.25 314.618 1105.81 317.367C1105.41 319.914 1101.07 320.592 1101.93 323.706C1103.61 324.311 1104.97 325.117 1106.8 325.245C1106.91 327.481 1104.22 328.342 1102.62 329.46C1103.83 332.923 1108.6 331.677 1106.07 336.587C1104.55 339.537 1102.18 341.699 1100.72 345.052C1098.34 350.567 1094.29 354.836 1090.48 358.666C1089.89 359.252 1088.96 360.864 1087.98 361.157C1085.14 362.037 1083.4 364.162 1080.14 364.364C1077.45 364.529 1075.58 363.521 1073.11 365.152C1072.14 365.793 1072.06 367.222 1070.96 367.845C1069.74 368.541 1068.27 368.23 1066.99 368.633C1064.57 369.421 1063.12 372.426 1060.24 371.766C1058.82 364.62 1048.77 373.14 1046.76 376.548C1044.38 380.543 1049.4 387.267 1051.36 390.711C1053.92 395.219 1056.76 398.553 1057.62 403.959C1058.08 406.817 1058.06 409.932 1058.06 412.79C1058.06 416.363 1057.02 416.949 1054.77 419.459C1052.95 421.475 1050.83 423.362 1048.63 424.993C1047.82 425.597 1046.1 426.953 1045.24 427.027C1042.33 427.228 1044.34 427.027 1043.13 425.249C1041.39 422.684 1039.76 421.182 1037.69 418.562C1035.99 416.418 1035.55 414.164 1034.52 411.764C1029.74 410.738 1024.22 409.492 1022.12 414.915C1020.5 419.056 1021.07 424.993 1023.53 428.529C1024.24 429.555 1025.45 430.123 1026.04 431.296C1026.64 432.523 1026.27 433.714 1026.73 434.869C1027.54 436.829 1029.72 438.35 1031.28 439.944C1035.16 443.902 1036.44 448.775 1037.85 454.382C1038.26 455.958 1040.2 460.905 1037.07 461.235C1035.82 461.363 1032.12 457.643 1031.11 456.581C1027.63 452.971 1025.87 447.145 1024.9 442.033C1022.67 441.007 1019.5 434.007 1018.87 431.662C1017.75 427.393 1018.52 421.475 1018.52 417.041C1018.52 407.99 1015.34 399.836 1013.83 391.096C1011.76 389.795 1010.32 392.269 1008.48 393.185C1006.39 394.229 1004.64 394.284 1002.2 394.193C1001.69 390.455 1002.07 385.801 1001.45 382.137C1000.92 379.113 997.93 375.907 996.153 373.891C995.841 372.591 995.182 372.352 994.302 371.381C993.276 370.245 990.564 365.793 989.758 365.408C987.669 364.4 983.144 368.12 980.853 368.889C977.519 370.007 974.587 370.08 972.938 372.902C971.326 375.65 971.179 376.823 968.211 379.223C963.575 382.943 960.662 387.487 955.568 390.785C949.284 394.871 947.726 397.637 947.03 405.04C946.499 410.72 946.426 416.583 944.172 421.786C942.376 425.927 939.353 433.916 935.817 427.136C934.681 424.956 932.922 423.307 931.731 421.273C930.21 418.672 930.375 415.832 928.873 413.248C927.022 410.042 926.692 398.022 922.075 397.088C921.782 396.3 921.525 395.585 920.957 395.017C920.188 394.248 919.895 392.745 919.895 391.811C919.895 387.743 919.895 383.437 919.546 379.352C919.217 375.614 919.656 368.926 917.018 366.214C913.976 366.947 913.72 370.447 910.99 371.565C907.179 369.091 907.875 367.79 910.239 364.474C908.003 362.458 904.449 361.835 901.737 360.131C899.74 358.867 894.665 355.642 894.188 353.407C893.62 353.059 893.73 353.407 893.492 352.692C891.312 352.436 889.809 351.41 887.464 351.556C885.522 351.666 883.689 352.381 881.711 352.363C877.936 352.363 875.536 351.593 872.238 350.842C869.435 350.201 866.247 351.172 863.333 350.054C860.658 349.028 860.658 345.876 858.258 344.814C856.297 343.934 852.853 345.308 850.159 344.008C845.396 341.717 840.65 337.925 836.747 334.462C832.112 330.376 829.968 328.745 823.775 332.043C823.775 334.297 826.359 336.166 827.201 338.126C828.227 340.526 828.594 342.084 830.206 344.392C832.497 347.654 833.376 351.74 835.813 354.781C836.326 355.422 838.763 359.197 839.294 359.508C841.346 360.754 844.351 358.244 846.165 357.346C848.107 356.394 850.05 356.045 851.845 354.763C853.329 353.7 854.209 351.501 855.693 350.897C857.983 353.59 858.734 356.558 861.373 359.142C863.352 361.084 867.841 364.62 870.314 365.152C869.764 368.157 867.126 372.646 865.037 374.734C862.619 377.171 858.405 380.341 857.488 383.914C853.971 385.013 850.104 389.96 846.788 391.976C842.336 394.687 838.103 395.677 833.578 398.48C826.047 403.134 817.71 408.484 808.439 408.118C805.068 406.139 806.79 401.229 806.241 397.491C805.691 393.771 804.298 389.997 802.411 386.79C801.019 384.427 798.454 383.089 797.079 381.037C795.943 379.352 794.331 375.852 793.488 373.91C791.326 368.835 791.967 362.898 788.523 358.226C786.782 355.862 784.217 355.679 783.173 352.967C782.11 350.256 782.678 346.921 781.597 344.136C779.93 339.922 776.906 335.341 774.121 331.988C772.014 333.344 772.344 335.268 771.263 337.228C769.522 335.964 768.148 333.802 766.078 333.051C762.193 336.019 771.007 347.489 772.857 350.475C774.103 352.473 776.283 354.195 777.346 356.229C778.464 358.409 779.362 362 780.259 364.327C781.267 366.984 782.256 370.044 783.044 372.627C783.906 375.431 783.374 378.289 784.455 381.092C785.463 383.712 787.002 384.464 788.724 386.79C790.355 389.026 790.117 391.463 791.363 393.551C792.755 395.915 795.888 397.381 797.464 399.58C799.26 402.09 799.535 405.333 801.642 407.44C802.448 408.264 803.987 410.152 804.848 410.994C806.497 412.643 807.267 414.696 807.761 416.986C812.269 419.056 814.174 419.459 819.414 418.836C822.254 418.488 825.241 418.36 828.008 417.792C829.767 417.426 832.387 415.465 834.072 415.63C839.477 416.18 834.915 419.716 833.798 422.134C832.57 424.736 831.287 428.492 830.518 431.332C829.712 434.282 829.968 437.104 828.136 439.871C826.359 442.546 825.058 444.854 823.647 447.768C822.126 450.956 819.543 452.696 817.692 455.555C815.695 458.651 814.87 461.033 811.902 463.635C807.395 467.592 802.576 472.393 798.27 476.735C794.331 480.73 791.967 486.923 789.897 492.144C788.871 494.71 787.35 497.605 788.193 500.408C788.743 502.258 790.337 503.541 790.648 505.776C790.85 507.187 790.886 508.983 791.088 510.375C791.949 516.55 793.47 522.596 793.506 528.936C793.506 531.208 794.972 534.506 794.569 536.76C794.074 539.508 790.85 542.531 789.219 544.583C785.17 549.677 778.189 553.708 772.894 557.464C772.784 559.443 774.414 561.147 775.019 562.686C776.412 563.419 777.145 564.793 777.767 566.24C775.862 567.743 774.03 568.915 773.608 571.297C773.059 574.43 775.239 576.464 773.792 579.396C772.546 581.906 769.577 583.372 767.745 585.094C763.219 589.29 764.392 595.245 762.56 600.925C761.516 604.186 758.602 606.018 756.88 609.023C755.286 611.808 754.883 614.612 752.959 617.25C748.836 622.857 742.259 623.296 737.202 627.254C734.783 625.513 727.362 626.393 724.632 628.225C722.635 628.06 720.015 629.324 717.963 629.361C714.848 629.398 713.694 627.566 711.257 626.448C710.506 625 707.428 623.077 710.066 621.812C711.715 615.674 707.244 609.152 704.148 603.985C700.63 598.14 700.264 592.35 697.753 586.267C696.581 583.427 695.994 580.99 695.152 578.077C694.254 574.944 694.987 573.441 694.804 570.235C694.364 562.613 690.883 555.412 687.566 548.944C684.598 543.154 687.163 536.87 689.545 531.409C690.681 528.808 692.183 525.766 692.77 523.238C693.393 520.544 692.312 516.678 692.312 513.948C692.312 511.181 692.88 507.737 692.312 505.043C691.634 501.764 688.757 500.756 687.658 497.934C687.09 496.487 687.603 494.948 686.87 493.372C686.265 492.071 685.056 491.155 684.195 490.001C682.619 487.894 680.897 485.53 679.559 483.313C676.316 477.945 677.635 471.825 677.709 465.852C677.745 462.902 677.049 460.447 676.628 457.662C676.243 455.17 676.628 451.945 675.84 449.545C674.612 448.83 673.11 448.244 671.589 448.061C669.5 447.786 670.215 447.969 668.163 448.519C664.443 449.508 664.223 449.453 662.025 446.998C658.067 442.582 653.193 440.237 646.689 441.941C640.313 443.608 636.263 447.713 629.539 446.393C625.984 445.697 623.694 445.917 620.286 447.255C617.52 448.354 615.174 449.325 612.169 448.061C610.887 447.529 607.479 447.676 606.819 447.346C600.828 444.25 591.593 440.237 588.643 433.11C586.903 428.914 589.358 424.278 586.445 420.266C585.125 418.452 582.982 417.81 581.791 416.088C580.472 414.219 580.288 412.13 578.328 410.298C575.689 407.843 573.307 407.128 574.059 402.823C574.498 400.239 576.276 398.535 577.174 396.043C579.024 390.913 577.43 383.639 576.899 378.252C576.386 372.994 576.331 365.775 579.83 361.579C583.293 357.42 587.544 353.022 590.714 347.91C593.444 343.495 597.383 340.838 600.516 336.679C601.817 334.956 603.448 332.355 603.979 330.174C604.694 327.316 603.649 324.421 604.675 321.636C606.599 316.414 611.876 313.537 614.753 309.232C616.072 307.234 616.493 303.277 619.223 304.156C620.176 304.468 620.653 306.593 621.77 307.033C623.181 307.583 624.995 306.483 626.314 306.282C632.379 305.347 637.125 304.156 642.695 301.573C648.374 298.934 652.68 298.183 659.185 298.458C664.48 298.678 672.249 294.958 676.719 298.018C681.941 301.591 678.826 307.289 679.193 312.291C680.915 312.914 681.52 314.16 682.949 314.948C684.799 315.956 686.503 316.139 688.391 316.982C692 318.576 695.426 321.031 698.651 323.028C702.023 325.136 704.533 326.675 708.325 327.682C709.883 328.085 712.045 329.441 713.676 329.13C715.325 328.818 717.267 326.363 718.604 325.484C719.081 322.497 719.484 321.013 722.232 320.207C724.431 319.565 727.436 320.463 729.378 321.178C734.325 322.992 739.785 324.531 744.75 325.832C747.059 326.436 749.624 327.261 752.153 326.986C754.553 326.73 755.652 325.465 757.759 324.769C760.636 323.798 759.757 324.439 762.395 326.015C764.74 327.426 766.334 327.462 769.193 327.298C772.326 322.607 774.506 317.752 776.796 312.841C778.739 308.664 780.717 300.199 778.079 295.728C773.865 295.508 769.889 297.78 765.95 297.175C762.706 296.681 758.511 292.522 757.063 297.743C754.901 298.037 752.684 296.278 750.724 295.655C747.609 294.684 747.59 295.948 746.803 292.467C746.29 290.158 746.235 288.491 745.355 286.42C744.677 284.79 743.523 282.554 743.651 280.759C746.546 280.704 748.928 279.842 751.731 279.934C752.079 278.138 753.069 277.919 754.223 277.076C756.275 275.555 758.987 275.042 761.406 274.217C763.604 273.466 764.062 273.228 765.968 271.799C766.847 271.139 767.397 270.022 768.533 269.655C773.975 267.915 778.885 273.32 783.136 275.115C787.863 277.112 797.226 276.874 800.249 272.513C804.097 266.98 797.776 264.488 794.862 260.824C792.187 259.193 789.329 257.947 787.79 254.777C786.416 251.956 787.423 251.204 787.79 248.31C788.889 239.606 779.032 245.579 775.092 246.935C773.81 250.527 780.791 252.286 776.32 254.979C774.634 255.987 772.216 254.979 770.695 254.356C767.269 252.982 769.174 253.348 768.478 251.058C764.722 238.947 758.199 251.974 753.307 254.411C752.757 257.507 750.174 259.651 748.708 262.253C747.462 264.433 745.722 269.38 747.957 271.469C747.132 272.33 746.931 273.668 747.151 274.95C743.853 275.665 741.269 276.434 738.118 276.709C733.885 277.076 734.6 278.047 731.503 280.026C730.862 279.311 729.946 279.348 729.415 278.981C729.085 281.088 729.561 283.269 730.514 284.973C731.393 286.548 733.684 287.501 733.647 289.608C733.61 292.485 727.894 297.212 725.145 295.563C725.787 293.383 726.428 291.111 729.305 291.679C731.797 289.242 728.92 286.603 726.556 286.09C726.593 286.64 726.483 287.208 726.556 287.776C726.886 287.923 727.179 287.739 727.527 287.886C727.601 288.454 727.491 289.022 727.527 289.553C726.776 289.553 725.457 289.224 724.779 288.839C724.724 288.509 724.779 288.197 724.669 287.886C721.683 286.457 720.034 282.188 718.22 279.293C715.728 275.317 714.757 271.982 711.605 268.501C708.967 265.569 706.402 262.271 703.25 259.779C701.033 258.039 696.984 253.605 694.144 253.935C692.806 251.772 692.055 250.343 689.911 251.241C687.841 252.121 687.236 254.851 687.658 256.866C688.171 259.413 691.615 263.389 693.1 265.679C696.984 271.652 705.174 274.657 710.762 278.633C710.671 279.714 710.524 279.916 709.388 280.319C704.368 273.741 707.299 290.744 703.415 288.839C703.323 284.936 702.847 280.575 699.109 278.487C698.999 278.303 699.366 278.248 699.238 277.937C691.689 277.149 688.885 272.605 684.177 268.189C683.627 265.954 682.234 263.792 680.549 262.198L678.771 260.421L678.607 260.237ZM837.462 246.001C830.225 246.001 823.958 250.252 824.27 258.094C824.38 260.915 826.175 263.371 827.128 265.936C828.191 268.831 829.492 271.909 830.39 274.785C835.63 274.84 830.793 287.318 829.583 289.792C833.065 293.859 838.616 297.505 843.765 296.479C848.455 295.545 847.851 293.877 846.99 289.443C846.605 287.52 846.44 281.18 844.278 280.484C843.802 277.131 845.927 276.984 848.419 276.215C848.144 274.566 847.576 272.807 846.642 271.359C844.443 271.616 844.754 275.042 842.134 274.437C840.797 271.927 841.383 269.215 840.65 266.65C839.881 263.902 837.719 262.418 836.363 260.256C833.339 255.474 838.964 252.963 843.087 251.278C843.38 249.262 843.27 247.082 841.713 245.634C840.247 246.019 838.616 245.983 837.444 245.983L837.462 246.001ZM873.429 249.189C869.545 249.189 868.225 251.809 867.309 253.825C865.862 256.976 866.008 258.424 867.804 261.593C872.183 262.235 873.96 254.906 874.143 251.681C874.217 250.472 873.979 249.189 873.429 249.189ZM758.804 160.783C756.367 162.267 757.961 168.039 759.262 170.091C762.23 167.324 765.345 172.07 768.295 169.706C769.559 166.537 765.088 162.084 761.937 161.571C760.911 161.406 759.665 161.095 758.804 160.783Z" fill="#8E8E8E" fill-opacity="0.15"/>
<path d="M298.105 23.1268C298.105 24.0246 299.259 24.7941 300.34 25.2339C300.926 25.4721 302.942 26.4615 303.418 26.4981C304.939 26.6081 306.24 24.9407 307.98 24.6659C310.033 24.3544 310.71 25.4721 312.268 26.3149C315.511 28.0922 320.696 28.2754 324.397 27.6891C328.465 27.0295 331.928 24.9774 335.831 23.3467C338.157 22.3756 345.505 20.1219 344.131 24.9591C343.306 27.8173 336.893 29.4114 334.218 30.3825C332.441 31.0421 330.37 31.1887 328.575 31.8483C326.761 32.5079 325.295 33.7172 323.261 33.8638C319.12 34.1752 315.987 31.0238 312.286 32.4896C310.82 33.0576 308.75 34.0836 309.465 35.751C310.234 37.5099 313.331 37.0702 314.137 38.8658C316.574 38.6276 318.424 40.4598 320.513 41.2477C322.968 42.1821 324.397 41.1011 326.908 41.4126C330.114 41.8157 328.74 43.9044 327.366 45.0771C325.717 46.4696 324.416 46.4513 322.29 46.6345C318.259 46.9826 314.43 46.5612 310.509 45.5351C307.156 44.6557 306.331 40.3316 304.316 37.9497C303.455 36.9419 303.107 37.0885 302.667 35.7143C302.392 34.8348 302.905 33.9004 302.392 33.0209C301.549 31.5734 299.515 31.8483 298.508 30.7306C296.419 30.694 282.549 22.1374 282.311 27.2677C282.256 28.5136 285.022 28.9167 283.392 30.8589C282.164 32.3247 281.193 31.0604 279.856 31.1337C278.555 31.207 276.026 32.1598 275.495 33.424C274.982 34.615 275.916 36.1174 275.953 37.29C277.584 37.5466 278.17 39.0856 279.819 39.3788C281.083 39.5987 282.549 39.1773 283.941 39.3788C285.609 39.617 291.16 39.6353 290.299 42.3104C288.229 43.5197 285.499 43.6663 283.263 44.674C282.75 46.5795 284.821 46.0848 285.719 47.2025C286.525 48.2102 285.719 49.5111 287.349 50.1341C287.752 50.299 289.255 49.8226 289.878 49.8776C290.574 49.9508 291.307 50.5738 291.93 50.5738C293.341 50.5738 295.521 49.4928 296.95 49.1263C300.12 48.3202 300.89 44.6007 304.041 46.0298C305.489 46.6895 306.588 47.9903 307.889 48.7782C309.153 49.5478 310.088 49.7676 311.608 50.0974C313.074 50.4089 315.328 51.0502 316.006 52.5526C316.72 54.165 315.273 56.1622 313.495 56.5103C311.7 56.8584 310.601 55.8323 309.318 54.8246C307.357 53.3039 307.321 52.2045 309.978 52.8458C311.04 53.1023 313.129 55.356 314.283 54.8429C316.848 53.7069 313.239 52.1495 312.506 51.8564C310.93 51.2151 308.823 50.1341 307.028 50.3723C305.818 50.5372 302.264 52.0579 302.227 53.4871C303.436 54.3666 304.169 55.5392 305.58 56.3087C305.782 57.4081 305.58 59.2037 304.481 59.7533C301.916 61.0542 303.18 58.7823 302.814 58.3242C302.136 57.4264 302.191 56.7668 300.505 57.573C299.479 58.0677 298.27 59.6617 298.544 60.7977C299.131 61.0909 299.607 61.952 300.157 62.1536C301.146 62.52 301.348 61.9887 302.392 61.9704C304.261 61.952 305.947 62.52 307.632 62.6666C311.901 63.0697 316.445 63.1247 320.696 63.1247C322.767 63.1247 324.855 63.0147 326.798 63.656C328.483 64.2057 329.802 65.3783 331.708 64.792C333.009 64.3889 334.42 63.2896 335.611 62.7399C337.26 61.952 339.257 61.3291 340.393 59.9182C338.964 57.7562 331.855 59.1854 329.344 57.9028C327.494 56.9683 326.798 55.5392 328.941 54.4948C330.902 53.542 332.569 54.8063 334.438 54.8979C339.11 55.1178 343.398 51.2151 347.245 48.9981C348.381 48.3385 352.742 46.7078 350.855 44.6557C349.847 43.5563 346.458 45.3153 345.193 45.3153C342.188 45.3153 342.152 44.0144 344.149 42.1638C345.835 40.6064 347.557 40.1483 349.572 39.6353C351.899 39.049 352.083 37.0885 353.622 36.3739C354.959 35.7326 358.294 36.9053 359.576 37.3633C364.285 39.049 367.217 35.6594 371.248 33.1858C375.15 30.8039 378.87 28.6419 382.937 26.7363C383.945 26.2599 388.526 24.8674 388.819 23.7681C389.332 21.8259 385.594 21.5328 384.715 22.4489C385.741 24.1162 382.974 24.8308 381.765 25.1606C380.592 25.4721 376.635 26.1134 376.268 24.5193C375.92 23.0718 379.163 21.716 380.152 21.1297C383.835 18.9859 388.672 18.6745 392.52 16.9888C394.81 15.9811 401.92 13.5442 400.234 10.1179C399.556 8.72538 395.635 7.16797 394.114 6.74656C392.117 6.19688 390.193 7.05804 388.159 7.16797C386.199 7.27791 383.414 6.91146 381.692 6.06863C379.859 5.17083 379.511 3.33858 377.624 2.80723C375.444 2.18427 372.585 3.04542 370.368 3.0271C367.895 3.0271 365.623 2.67898 363.223 3.0271C360.914 3.37523 358.77 4.18141 356.48 3.94322C354.025 3.68671 351.441 3.15536 348.968 2.80723C346.989 2.5324 344.882 1.6346 342.811 1.87279C341.565 2.01937 340.448 3.13704 339.184 3.26529C338.341 3.35691 337.241 2.64233 336.38 2.60569C334.072 2.51407 332.661 3.72335 330.499 4.16309C328.227 4.60283 326.999 4.12645 325.515 6.10527C324.287 7.73597 323.903 9.34834 322.199 10.6126C320 12.2433 317.875 11.5654 315.163 11.4554C312.451 11.3638 311.791 12.0417 310.124 13.5075C309.776 13.8007 310.051 14.332 309.446 14.6618C309.098 14.8634 308.219 14.6069 307.834 14.6618C306.899 14.7901 305.818 14.7168 304.884 14.9367C302.868 15.4131 301.219 16.5857 299.186 16.9338C296.969 17.3186 295.118 17.3369 292.828 17.8866C292.681 18.2714 292.663 18.9859 292.791 19.4074C293.982 19.8288 295.21 19.8471 296.181 20.8182C296.657 21.2946 298.013 22.2657 298.013 23.1085L298.105 23.1268Z" fill="#8E8E8E" fill-opacity="0.15"/>
<path d="M330.352 29.5213C332.496 29.5213 343.343 25.6736 341.346 23.8047C339.806 22.3756 331.213 27.3043 330.132 28.3853C329.656 28.8617 329.821 29.5213 330.352 29.5213Z" fill="#8E8E8E" fill-opacity="0.15"/>
<path d="M274.322 63.143C275.806 63.4545 277.29 64.169 278.719 64.5172C282.311 65.3966 284.509 66.7525 286.397 70.0505C287.423 71.8644 286.8 73.4035 288.778 74.5578C290.886 75.7855 293.286 74.8876 295.594 74.796C297.775 74.7044 299.442 74.8327 301.329 75.932C302.813 76.7932 302.704 77.1596 304.481 77.3062C305.562 77.3978 306.533 77.068 307.504 77.068C312.323 77.068 317.288 75.9687 322.144 75.6938C325.039 75.5289 332.368 78.6437 333.815 74.7777C333.998 74.3013 333.558 72.8172 333.815 72.0477C334.053 71.2965 335.061 70.417 335.189 69.7574C335.867 66.5326 332.111 69.1894 330.645 69.8307C328.978 70.5452 326.944 70.9483 325.185 70.9117C322.822 70.8567 321.118 70.93 318.607 71.3148C316.17 71.6812 313.972 71.1316 311.627 70.8934C309.739 70.6918 306.331 72.066 304.939 70.4719C301.219 71.2415 299.002 71.2232 295.21 70.0505C293.726 69.5925 291.765 69.1894 290.739 67.7785C290.024 66.7891 290.006 65.5249 289.255 64.4622C287.386 61.7321 284.106 62.3001 281.01 61.494C277.95 60.7061 274.982 59.2586 272.05 61.7688C272.563 62.2818 273.662 62.9598 274.34 63.143H274.322Z" fill="#8E8E8E" fill-opacity="0.15"/>
<path d="M190.589 91.9641C191.871 90.6815 193.942 89.7288 195.444 88.831C196.672 88.0981 199.347 85.3314 200.703 85.3864C203.872 85.4963 199.786 95.2255 206.346 91.7076C206.969 88.5378 208.416 87.4385 211.128 89.2707C212.392 90.1319 211.604 91.103 213.455 89.6921C214.939 88.5561 213.748 87.8782 216.203 87.8599C219.19 87.8416 220.912 89.8937 222.415 91.9824C222.891 92.642 224.338 94.7858 224.852 95.0056C226.94 95.9218 226.354 93.7597 228.095 93.0818C228.15 91.4144 227.911 89.1424 228.974 87.8232C230.147 86.3574 232.382 86.5223 233.665 85.2031C234.562 84.287 235.479 81.3005 237.512 83.2976C239.051 84.8184 236.743 86.5956 236.285 88.0065C235.259 91.1946 237.97 96.8562 239.546 99.6046C241.617 103.196 245.299 103.324 249.202 103.672C250.356 103.782 251.437 103.8 252.555 103.929C253.105 106.292 249.294 105.578 248.176 106.805C246.747 108.363 247.919 109.92 248.524 111.148C251.053 116.186 246.069 114.721 243.211 112.76C241.836 111.826 240.536 110.58 238.85 109.828C236.505 108.784 234.947 109.26 232.675 109.169C230.238 109.059 229.066 108.106 226.556 109.169C224.357 110.085 222.58 111.148 220.253 111.716C216.112 112.742 211.824 114.611 207.5 113.969C205.356 113.658 204.55 112.192 203.103 110.781C201.948 109.664 200.08 108.674 198.357 108.088C197.478 107.795 193.923 107.465 194.29 106.201C194.638 104.991 199.567 104.662 200.666 104.643C201.985 104.643 214.536 105.23 211.238 100.704C209.497 98.3037 200.116 100.246 197.441 100.466C195.627 100.631 193.74 100.869 192.183 99.5496C191.175 98.6884 189.672 97.1127 189.672 95.6652C189.672 94.969 189.874 92.7153 190.589 92.0008V91.9641Z" fill="#8E8E8E" fill-opacity="0.15"/>
<path d="M170.012 79.6147C171.607 78.8635 172.944 77.5809 174.813 77.3244C176.828 77.0495 177.909 78.039 179.485 78.6619C182.966 80.0361 187.327 77.8374 190.772 79.1566C192.989 80.0178 196.91 81.7767 196.03 84.635C195.517 86.3024 189.471 90.9196 189.727 88.3362C191.212 87.7315 192.036 86.4123 193.319 85.5145C191.358 83.2609 186.209 89.124 184.451 89.7104C184.396 92.3305 183.388 91.8174 181.611 92.4037C179.907 92.9717 179.302 93.668 178.019 94.9322C176.242 96.6912 168.858 99.9526 168.822 94.9689C167.576 94.8773 167.172 93.9978 166.348 93.7596C165.212 93.4298 163.911 93.5947 162.72 93.5031C162.482 93.1 162.409 92.6786 162.482 92.2022C166.751 90.5715 169.481 89.1607 168.18 84.1586C167.869 82.931 168.29 80.4026 170.012 79.578V79.6147Z" fill="#8E8E8E" fill-opacity="0.15"/>
<path d="M201.802 65.6715H201.948C205.76 65.7448 207.958 67.9984 211.458 68.8229C214.188 69.4642 219.831 71.8461 222.121 68.6031C223.148 67.1556 221.517 64.224 222.616 62.9048C223.862 61.4023 225.474 63.3995 226.354 64.5538C227.27 65.7631 227.966 68.6214 229.505 69.0978C231.099 69.5925 232.584 67.9801 234.288 69.3543C233.683 71.6995 227.6 72.7256 225.328 72.9271C222.689 73.1653 220.656 73.1653 218.255 74.1364C216.002 75.0342 214.188 76.6832 211.861 77.1596C210.523 77.4345 204.733 78.0025 205.027 76.1885C205.393 73.9898 209.717 75.3457 207.812 72.4874C207.134 71.4797 204.788 70.1788 203.451 70.2521C201.454 70.3437 200.941 72.6157 199.145 72.7256C194.161 73.0554 195.187 65.9097 198.192 65.9097C199.054 65.9097 199.97 65.6898 201.857 65.6898L201.802 65.6715Z" fill="#8E8E8E" fill-opacity="0.15"/>
<path d="M267.909 83.9572C267.799 84.1771 267.689 84.4886 267.524 84.7084C266.132 86.4857 266.352 87.0537 267.726 88.9776C268.606 90.2235 270.951 91.5061 271.116 93.0818C271.427 96.05 267.525 95.3721 265.967 96.2516C264.923 96.8379 264.886 98.0655 263.274 97.9189C262.138 97.8273 260.873 96.1966 259.994 95.5553C258.84 94.6942 249.917 89.4906 250.027 88.7394C250.338 86.5956 253.746 89.344 254.845 89.2157C257.887 88.8493 256.33 86.614 254.809 85.5513C255.285 83.8473 259.829 83.0594 261.533 82.1799C263.036 81.3921 265.601 79.3766 267.433 81.2088C268.001 81.7768 268.276 83.206 267.891 83.9572H267.909Z" fill="#8E8E8E" fill-opacity="0.15"/>
<path d="M291.234 79.6148C287.917 79.1567 282.97 79.8896 279.965 81.1722C278.445 81.8318 276.851 82.1249 276.576 83.9572C276.411 85.0199 277.107 87.5117 277.254 88.7576C277.785 93.0817 280.79 95.1522 282.531 90.3151C283.19 88.4645 284.088 87.64 285.92 86.4673C287.129 85.6978 288.302 85.0565 289.401 83.9572C290.134 83.2243 293.762 79.9629 291.234 79.6148Z" fill="#8E8E8E" fill-opacity="0.15"/>
<path d="M264.703 108.216C266.572 107.08 268.111 109.151 269.503 109.81C271.189 110.616 272.856 110.8 274.78 110.507C276.594 110.232 278.646 109.096 278.39 111.881C278.28 112.962 276.649 114.886 275.971 115.82C275.293 116.773 273.809 118.862 272.49 118.055C270.273 116.699 273.498 115.307 274.157 114.208C274.432 113.731 275.275 112.815 274.743 112.156C273.864 111.075 273.131 112.833 272.545 113.255C271.482 114.006 269.888 115.472 268.331 115.71C265.491 116.15 263.127 113.75 259.957 113.676C259.811 112.449 261.002 111.496 261.753 110.745C262.358 110.14 263.952 108.693 264.721 108.235L264.703 108.216Z" fill="#8E8E8E" fill-opacity="0.15"/>
<path d="M336.307 82.3632C338.011 82.2899 342.408 82.8396 343.636 84.0122C346.696 86.9621 341.364 86.3392 339.678 86.669C337.589 87.0721 335.372 89.1242 333.284 87.9149C331.378 86.8155 331.525 84.3054 332.642 82.3998C333.1 82.18 332.899 82.6014 333.119 82.6014C333.888 82.6014 335.537 82.3998 336.325 82.3815L336.307 82.3632Z" fill="#8E8E8E" fill-opacity="0.15"/>
<path d="M425.739 227.843C425.739 230.134 422.697 229.767 423.265 232.607C427.278 232.68 430.484 230.775 433.599 234.403C435.999 237.206 432.17 240.596 437.153 241.127C437.3 241.31 437.502 241.658 437.612 241.823C437.648 243.454 436.219 245.726 434.497 244.26C434.643 242.904 433.581 242.428 432.426 242.959C432.316 244.077 431.547 245.286 430.612 245.909C428.67 247.21 429.183 246.276 428.505 244.975C428.047 244.095 427.791 243.216 427.772 242.41C427.772 241.897 428.45 240.266 428.304 239.936C427.589 238.415 424.694 239.643 423.247 239.936C419.381 240.761 415.918 242.08 413.316 238.617C411.74 236.528 411.685 236.675 413.408 234.916C414.434 233.89 415.533 232.534 416.669 231.526C418.153 230.189 419.784 228.943 421.415 227.587C422.147 226.982 425.537 223.886 425.537 225.993C425.537 226.707 425.757 227.22 425.757 227.825L425.739 227.843Z" fill="#8E8E8E" fill-opacity="0.15"/>
<path d="M297.866 244.315C300.688 245.195 301.183 244.627 303.601 245.231C304.646 245.488 305.232 246.166 306.167 246.606C307.211 247.1 308.054 246.954 309.318 247.283C316.226 249.134 305.269 254.374 304.096 256.042C302.777 257.929 303.913 259.34 304.334 261.373C304.719 263.206 304.646 265.478 304.737 267.365C304.866 270.113 304.609 272.568 307.541 269.747C309.263 268.079 309.391 266.595 310.216 264.433C310.857 262.766 312.011 261.337 312.286 259.633C312.561 257.929 312.378 255.895 312.689 254.612C313.147 252.762 313.441 251.058 315.731 251.168C317.746 251.259 318.369 252.689 319.798 253.733C319.908 254.851 319.377 257.342 319.835 258.277C320.513 259.651 322.877 259.175 324.159 260.366C324.654 262.967 326.413 263.132 327.402 261.007C328.3 259.101 327.934 257.929 329.454 256.206C331.03 254.429 331.506 253.971 328.96 252.597C327.421 251.772 325.368 250.911 323.573 250.71C321.026 250.435 320.293 249.629 317.801 249.116C316.372 248.823 314.1 248.163 313.404 246.88C312.598 245.396 313.605 243.326 312.506 241.842C311.883 240.999 310.179 239.698 309.3 239.112C306.368 237.133 303.491 234.311 299.9 237.389C298.416 238.672 297.024 240.174 295.136 241.072C293.964 241.622 290.299 242.043 291.325 244.279C292.296 244.26 292.883 245.011 293.799 245.011C294.568 245.011 296.95 244.022 297.921 244.334L297.866 244.315Z" fill="#8E8E8E" fill-opacity="0.15"/>
<path d="M332.184 252.084C333.174 252.615 334.163 252.194 334.731 253.183C335.995 253.147 336.93 252.304 338.084 251.809C340.613 247.412 333.632 247.595 331.36 250.233C331.58 250.472 331.378 250.6 331.488 250.93C331.653 251.406 331.8 251.864 332.184 252.066V252.084Z" fill="#8E8E8E" fill-opacity="0.15"/>
<path d="M340.411 249.794C341.969 249.647 342.94 250.453 344.424 249.958C345.34 249.665 347.245 248.071 346.201 246.972C345.028 245.744 339.99 248.145 339.275 248.877C339.019 249.134 338.744 249.94 340.411 249.794Z" fill="#8E8E8E" fill-opacity="0.15"/>
<path d="M395.323 229.896C397.559 229.749 401.736 231.728 403.752 232.681C404.356 234.824 401.645 236.657 399.666 235.85C397.742 235.081 395.983 233.304 394.407 231.728C393.784 231.105 393.913 229.987 395.323 229.896Z" fill="#8E8E8E" fill-opacity="0.15"/>
<path d="M325.094 372.169C325.368 370.447 321.887 368.431 324.177 367.369C325.936 366.544 329.601 368.944 330.975 369.714C333.577 371.161 335.794 372.572 338.304 374.056C339.312 374.661 341.529 375.284 341.968 376.328C342.317 377.171 341.474 378.637 341.602 379.663C343.398 380.268 345.56 379.883 347.355 379.48C348.766 379.15 351.551 379.022 352.742 378.344C356.15 376.402 349.756 373.03 347.942 371.876C344.534 369.714 340.668 368.596 337.296 366.617C335.721 365.701 334.401 364.675 332.642 364.107C330.773 363.503 328.263 363.063 326.266 362.55C323.646 361.89 322.803 361.725 320.33 363.228C319.633 363.649 315.914 365.426 315.786 365.976C315.401 367.442 318.736 367.772 319.633 368.266C321.612 369.329 322.07 369.952 322.382 372.169C322.382 372.774 325.13 373.323 325.13 372.169H325.094Z" fill="#8E8E8E" fill-opacity="0.15"/>
<path d="M364.212 386.809C366.832 386.57 369.122 385.892 371.926 385.892C373.208 385.892 375.187 386.241 376.103 385.215C377.111 384.079 376.36 383.914 375.608 382.741C371.724 382.191 365.623 379.48 361.922 380.872C360.547 381.385 360.786 382.173 359.924 382.943C359.265 383.547 357.964 383.804 357.524 384.298C355.417 386.589 359.668 386.607 361.464 386.607C361.995 386.607 363.332 387.065 364.212 386.827V386.809Z" fill="#8E8E8E" fill-opacity="0.15"/>
<path d="M831.214 528.588C831.214 529.394 831.654 529.999 831.819 530.75C832.093 532.051 832.002 533.425 832.295 534.744C832.552 535.972 832.698 537.126 832.698 538.464C832.698 541.67 831.544 543.704 829.858 546.269C828.96 547.625 828.795 548.871 828.576 550.428C828.264 552.663 827.476 554.532 826.835 556.694C825.992 559.534 826.414 562.649 825.607 565.563C825.113 567.358 824.325 569.135 824.142 571.059C823.995 572.708 824.032 574.266 823.702 575.878C823.409 577.27 822.932 578.407 822.401 579.707C821.87 581.027 821.87 582.529 821.137 583.83C820.569 584.856 819.579 585.992 818.681 586.487C817.509 587.128 816.245 586.633 814.962 586.487C812.653 586.248 810.51 583.83 809.575 581.814C809.007 580.605 808.879 579.249 808.366 578.04C807.78 576.666 807.248 575.713 807.34 574.156C807.413 572.837 807.541 571.591 807.34 570.29C807.157 569.117 806.827 567.963 807.45 566.863C807.981 565.929 808.971 565.489 809.594 564.573C810.308 563.547 810.803 561.806 811.004 560.56C811.444 557.629 810.931 554.459 810.748 551.582C810.675 550.355 810.033 549.072 810.143 547.9C810.29 546.452 811.664 545.243 812.617 544.327C814.87 542.201 817.381 540.461 819.854 538.629C822.144 536.925 824.655 535.074 825.992 532.582C827.091 530.53 826.835 526.829 830.188 526.829C830.646 526.829 831.214 527.269 831.214 528.588Z" fill="#8E8E8E" fill-opacity="0.15"/>
<path d="M952.399 431.186C952.875 433.256 954.524 435.363 953.186 437.708C952.417 439.064 948.533 441.281 947.287 440.31C945.473 438.881 946.81 428.181 950.108 429.756C950.603 429.995 952.215 430.361 952.399 431.186Z" fill="#8E8E8E" fill-opacity="0.15"/>
<path d="M1132.62 347.965C1131.56 349.779 1130.07 351.575 1127.51 351.08C1127.4 348.954 1133.48 342.34 1133.48 345.088C1133.48 346.059 1133.13 347.104 1132.62 347.965Z" fill="#8E8E8E" fill-opacity="0.15"/>
<path d="M1108.23 356.87C1108.23 360.149 1107.85 370.776 1102.24 369.164C1102.18 366.196 1099.78 355.147 1106.22 355.147C1107.26 355.147 1108.23 356.265 1108.23 356.87Z" fill="#8E8E8E" fill-opacity="0.15"/>
<path d="M558.705 145.081C559.841 146.29 561.288 147.041 561.618 148.764C565.484 148.434 587.342 142.919 585.913 137.954C585.07 137.147 583.623 136.341 582.817 135.333C582.011 134.326 581.992 131.98 580.893 131.229C578.859 129.818 571.933 132.475 569.478 132.695C567.756 132.86 565.667 132.383 564.165 133.373C562.882 134.216 562.571 135.846 561.288 136.763C559.511 138.008 551.779 138.576 553.281 141.307C554.765 141.343 556.616 140.958 557.257 142.497C557.532 143.157 558.045 144.403 558.686 145.081H558.705Z" fill="#8E8E8E" fill-opacity="0.15"/>
<path d="M261.771 65.5797C262.303 66.1111 262.431 66.8623 262.467 67.6502C262.559 69.7756 263.072 72.469 260.287 72.4873C259.005 72.4873 257.722 72.0476 256.586 71.4246C255.542 70.8383 254.882 69.8122 253.801 69.116C253.215 68.7495 251.859 68.1998 252.94 67.5586C253.581 67.1738 254.662 68.2182 255.303 68.3647C256.311 68.6029 257.337 68.4197 257.301 67.1921C257.264 66.4226 256.513 65.6897 255.89 65.14C255.157 64.4987 253.746 63.8941 252.903 64.6636C252.097 65.4148 253.141 66.0378 252.427 66.844C251.144 68.2731 249.184 64.4254 249.715 63.5093C250.558 62.0252 254.021 61.6221 255.542 61.8603C257.594 62.1718 259.151 62.9413 260.635 64.4254C261.075 64.8652 261.295 65.085 261.79 65.5797H261.771Z" fill="#8E8E8E" fill-opacity="0.15"/>
<path d="M258.766 50.1341C257.081 48.2103 255.102 46.3964 253.398 44.5092C252.482 43.4831 251.584 42.9334 250.375 42.2738C249.294 41.6875 248.213 41.5959 247.04 41.1745C245.776 40.7164 245.134 39.5621 243.705 39.6537C241.946 39.7636 240.426 39.9652 238.63 39.8919C237.805 39.8553 236.321 39.5255 236.303 40.6981C236.303 41.6509 238.483 42.2372 239.18 42.8785C240.719 44.271 239.326 46.2681 242.038 45.9933C243.742 45.8284 245.721 45.5719 247.351 46.2681C247.626 46.378 248.304 47.056 248.671 47.2942C249.22 47.6423 249.733 48.0087 250.265 48.4118C251.162 49.1081 252.152 49.4562 253.123 50.0059C254.131 50.5739 255.56 51.9847 256.842 51.9847C257.85 51.9847 260.195 51.7282 258.803 50.1341H258.766Z" fill="#8E8E8E" fill-opacity="0.15"/>
<path d="M209.222 48.9981C209.222 46.8727 214.334 47.2391 216.02 47.1475C216.881 47.0925 218.659 46.6345 219.336 47.3674C220.106 48.2102 219.758 50.0058 219.007 50.6837C218.585 51.0685 217.889 51.3617 217.394 51.7098C216.68 52.2228 216.661 52.5343 216.13 53.1206C214.902 54.4948 213.125 55.1361 211.641 56.1255C210.358 56.9683 209.589 57.8478 208.288 56.5652C207.72 55.9972 207.299 54.9712 207.592 54.1467C208.05 52.9008 210.175 52.2778 211.275 51.8197C212.429 51.3433 214.866 50.9952 215.544 49.9142C214.408 49.1813 212.484 50.0058 211.275 50.0058C210.34 50.0058 209.204 49.7859 209.204 48.9614L209.222 48.9981Z" fill="#8E8E8E" fill-opacity="0.15"/>
<path d="M177.873 67.9983C179.797 69.1159 181.409 67.6685 182.38 66.2027C183.443 64.5903 184.469 63.0695 186.173 62.0068C187.254 61.3289 187.529 61.4388 188.683 61.4572C189.416 61.4572 190.882 61.5671 191.596 61.164C192.476 60.6876 192.952 59.3318 193.557 58.5073C194.198 57.6461 194.968 56.8399 194.803 55.7039C193.209 55.594 192.897 55.2275 191.468 56.0337C190.515 56.5834 189.672 57.2613 188.83 57.811C187.089 58.947 185.074 58.2691 183.076 58.9653C181.849 59.3867 181.244 60.1563 180.291 60.9258C179.43 61.6221 178.422 62.1534 177.543 62.923C176.7 63.6742 173.109 65.7813 173.769 67.0455C174.465 67.2654 175.124 67.5219 175.821 67.5219C176.517 67.5219 177.122 67.5219 177.891 67.98L177.873 67.9983Z" fill="#8E8E8E" fill-opacity="0.15"/>
<path d="M273.296 70.8933C274.817 69.9772 276.411 69.8122 277.913 70.6551C278.39 70.9299 279.562 71.4429 279.874 71.8094C280.57 72.5973 280.002 72.7988 279.727 73.5317C279.397 74.4112 279.434 75.1624 278.61 75.6021C277.877 76.0052 276.942 75.7487 276.191 75.6021C274.505 75.254 273.681 74.6127 272.618 73.5317C272.105 73.0187 272.526 71.3697 273.314 70.8749L273.296 70.8933Z" fill="#8E8E8E" fill-opacity="0.15"/>
<path d="M1114.81 513.215C1116.51 510.888 1119.04 509.789 1121.13 508.085C1122.72 506.784 1125.64 503.761 1127.56 506.216C1129.76 509.001 1125.11 510.833 1123.4 511.969C1121.07 513.508 1117.89 516.916 1114.96 516.55C1114.48 516.495 1114 516.073 1113.53 516.073C1112.74 516.073 1114.11 514.149 1114.79 513.215H1114.81Z" fill="#8E8E8E" fill-opacity="0.15"/>
<path d="M1141.38 482.818C1142.49 485.218 1138.48 485.475 1137.07 485.53C1136.01 485.567 1131.85 485.676 1131.37 484.541C1130.2 481.755 1139.86 480.455 1140.09 482.342L1141.36 482.818H1141.38Z" fill="#8E8E8E" fill-opacity="0.15"/>
<path d="M1106.69 507.792C1106 507.095 1099.12 506.216 1100.44 509.276C1100.65 509.752 1102.51 510.888 1103.03 511.016C1104.22 511.328 1105.52 510.394 1106.38 509.551C1106.95 508.983 1107.39 508.488 1106.69 507.792Z" fill="#8E8E8E" fill-opacity="0.15"/>
<path d="M1094.6 508.121C1092.99 508.121 1091.48 507.553 1089.85 507.81C1089.14 507.92 1087.2 508.689 1087.42 509.715C1087.71 511.145 1093.76 510.87 1094.91 509.715C1095.31 509.312 1095.02 508.121 1094.6 508.121Z" fill="#8E8E8E" fill-opacity="0.15"/>
<path d="M1223.33 490.294C1221.79 492.621 1220.36 494.361 1217.76 495.736C1215.42 496.981 1213.42 497.128 1213.62 493.958C1213.82 490.752 1215.6 491.32 1218.11 490.147C1220.2 489.158 1221.74 485.695 1223.64 487.6C1223.96 487.912 1223.83 489.561 1223.33 490.312V490.294Z" fill="#8E8E8E" fill-opacity="0.15"/>
<path d="M1230.33 487.912C1231.06 486.666 1230.61 485.457 1230.33 484.284C1228.88 483.991 1228.17 482.452 1226.98 481.829C1225.51 481.078 1223.66 480.986 1224.3 482.818C1224.56 483.57 1225.57 484.925 1225.97 485.64C1226.54 486.611 1227.71 487.674 1228.59 488.553C1228.94 488.901 1229.97 488.553 1230.33 487.912Z" fill="#8E8E8E" fill-opacity="0.15"/>
</svg>
